<?xml version="1.0" encoding="UTF-8" standalone="no"?>
<!-- Created with Inkscape (http://www.inkscape.org/) -->
<svg xmlns:a="http://ns.adobe.com/AdobeSVGViewerExtensions/3.0/" xmlns:dc="http://purl.org/dc/elements/1.1/" xmlns:cc="http://web.resource.org/cc/" xmlns:rdf="http://www.w3.org/1999/02/22-rdf-syntax-ns#" xmlns:svg="http://www.w3.org/2000/svg" xmlns="http://www.w3.org/2000/svg" xmlns:xlink="http://www.w3.org/1999/xlink" xmlns:sodipodi="http://sodipodi.sourceforge.net/DTD/sodipodi-0.dtd" xmlns:inkscape="http://www.inkscape.org/namespaces/inkscape" version="1.0" width="48pt" height="48pt" viewBox="0 0 256 256" id="svg2" xml:space="preserve" sodipodi:version="0.32" inkscape:version="0.45.1" sodipodi:docname="Nuvola_Europe_flag.svg" sodipodi:docbase="/home/federico/Desktop/Flags/To fix" inkscape:output_extension="org.inkscape.output.svg.inkscape"><metadata id="metadata45"><rdf:RDF><cc:Work rdf:about=""><dc:format>image/svg+xml</dc:format><dc:type rdf:resource="http://purl.org/dc/dcmitype/StillImage"/></cc:Work></rdf:RDF></metadata><sodipodi:namedview inkscape:window-height="963" inkscape:window-width="1272" inkscape:pageshadow="2" inkscape:pageopacity="0.0" guidetolerance="10.0" gridtolerance="10.0" objecttolerance="10.0" borderopacity="1.0" bordercolor="#666666" pagecolor="#ffffff" id="base" inkscape:zoom="12.55" inkscape:cx="30" inkscape:cy="30" inkscape:window-x="0" inkscape:window-y="25" inkscape:current-layer="svg2"/><defs id="defs271"><linearGradient x1="87.396973" y1="141.97266" x2="240.94727" y2="141.97266" id="XMLID_22_" gradientUnits="userSpaceOnUse" gradientTransform="matrix(1.567692,0,0,1.567692,-129.3706,-94.56783)">
								<stop style="stop-color:#ffffff;stop-opacity:0.66666675" offset="0" id="stop139"/>
								
								<stop style="stop-color:#d7d7d7;stop-opacity:0.21875" offset="0.24074516" id="stop143"/>
								<stop style="stop-color:#4d4d4d;stop-opacity:0" offset="0.4585622" id="stop145"/><stop style="stop-color:#ffffff;stop-opacity:0.51041669" offset="0.71891773" id="stop3696"/><stop style="stop-color:#f2f2f2;stop-opacity:0.40000001" offset="0.87351298" id="stop2807"/><stop style="stop-color:#ffffff;stop-opacity:0.62352943" offset="1" id="stop3694"/>
								
								
								<a:midPointStop style="stop-color:#E9E9EF" offset="0"/>
								<a:midPointStop style="stop-color:#E9E9EF" offset="0.5"/>
								<a:midPointStop style="stop-color:#B1B1C5" offset="0.157303"/>
								<a:midPointStop style="stop-color:#B1B1C5" offset="0.5"/>
								<a:midPointStop style="stop-color:#CECEDB" offset="0.314607"/>
								<a:midPointStop style="stop-color:#CECEDB" offset="0.5"/>
								<a:midPointStop style="stop-color:#FFFFFF" offset="0.65"/>
								<a:midPointStop style="stop-color:#FFFFFF" offset="0.5"/>
								<a:midPointStop style="stop-color:#CECEDB" offset="0.837079"/>
								<a:midPointStop style="stop-color:#CECEDB" offset="0.5"/>
								<a:midPointStop style="stop-color:#FFFF66" offset="1"/>
							</linearGradient><linearGradient x1="87.396973" y1="141.97266" x2="269.33331" y2="141.97276" id="linearGradient1945" xlink:href="#XMLID_22_" gradientUnits="userSpaceOnUse" gradientTransform="matrix(1.567692,0,0,1.567692,-129.3714,-94.56962)"/><linearGradient gradientTransform="matrix(1.567692,0,0,1.567692,-69.82581,15.22741)" gradientUnits="userSpaceOnUse" id="XMLID_17_" y2="112.30453" x2="126.18921" y1="39.617504" x1="126.18921">
								<stop id="stop18" offset="0" style="stop-color:#c200be;stop-opacity:1;"/>
								<stop id="stop20" offset="0.19460699" style="stop-color:#c200be;stop-opacity:1;"/>
								<stop id="stop22" offset="0.31460699" style="stop-color:#1000ae;stop-opacity:1;"/>
								<stop id="stop24" offset="0.72999996" style="stop-color:#1000ae;stop-opacity:1;"/>
								<stop id="stop26" offset="0.85707897" style="stop-color:#00dab6;stop-opacity:1;"/>
								<stop id="stop28" offset="1" style="stop-color:#00dab6;stop-opacity:1;"/>
								<a:midPointStop offset="0" style="stop-color:#CF0000"/>
								<a:midPointStop offset="0.5" style="stop-color:#CF0000"/>
								<a:midPointStop offset="0.157303" style="stop-color:#7C0000"/>
								<a:midPointStop offset="0.5" style="stop-color:#7C0000"/>
								<a:midPointStop offset="0.314607" style="stop-color:#CF0000"/>
								<a:midPointStop offset="0.5" style="stop-color:#CF0000"/>
								<a:midPointStop offset="0.65" style="stop-color:#B80000"/>
								<a:midPointStop offset="0.5" style="stop-color:#B80000"/>
								<a:midPointStop offset="0.837079" style="stop-color:#CF0000"/>
								<a:midPointStop offset="0.5" style="stop-color:#CF0000"/>
								<a:midPointStop offset="1" style="stop-color:#FF0000"/>
							</linearGradient><linearGradient inkscape:collect="always" xlink:href="#XMLID_22_" id="linearGradient3188" gradientUnits="userSpaceOnUse" gradientTransform="matrix(1.567692,0,0,1.567692,-129.3714,-94.56962)" x1="87.396973" y1="141.97266" x2="269.33331" y2="141.97276"/><linearGradient inkscape:collect="always" xlink:href="#XMLID_17_" id="linearGradient3271" gradientUnits="userSpaceOnUse" x1="110.79613" y1="74.262764" x2="115.41695" y2="180.35185"/><linearGradient inkscape:collect="always" xlink:href="#XMLID_17_" id="linearGradient7085" x1="133.17909" y1="151.1393" x2="132.62358" y2="123.21392" gradientUnits="userSpaceOnUse"/><linearGradient inkscape:collect="always" xlink:href="#XMLID_22_" id="linearGradient3709" gradientUnits="userSpaceOnUse" gradientTransform="matrix(1.567692,0,0,1.567692,-129.3714,-94.56962)" x1="87.396973" y1="141.97266" x2="269.33331" y2="141.97276"/></defs>
	
		
	<g style="display:inline" id="layer2"/><g id="g2960" inkscape:label="ombre" style="display:inline" sodipodi:insensitive="true"><path id="path5924" style="fill:url(#linearGradient1945)" d="M 248.35974,206.96001 C 168.11962,164.50832 87.879509,258.33713 7.6401612,215.88544 C 7.6401612,160.27066 7.6401612,104.24666 7.6401612,48.63112 C 87.981616,90.163083 169.3449,-2.0312598 248.35974,40.114878 C 248.35974,95.729664 248.35974,151.34523 248.35974,206.96001 z " sodipodi:nodetypes="ccccc"/></g>


<g id="g3685"><polyline id="_x3C_Slice_x3E_" points="0,256 0,0 256,0 256,256 " style="fill:none"/><path id="path3688" style="fill:#4d4d4d" d="M 248.36055,32.472022 C 167.27229,-10.429768 86.183274,85.849332 5.0950169,40.005058 C 2.2811336,38.417463 1.7853684e-05,39.212792 1.7853684e-05,42.029738 C 1.7853684e-05,99.343119 1.7853684e-05,156.65726 1.7853684e-05,213.97064 C 1.7853684e-05,216.78146 2.2811336,220.54913 5.0950169,222.13519 C 87.031416,268.46019 168.96859,169.6711 250.90499,215.99533 C 253.71887,217.58215 255.99999,216.78759 255.99999,213.97064 C 255.99999,156.65726 255.99999,99.343119 255.99999,42.029738 C 255.99999,39.218915 253.71887,35.452015 250.90499,33.864421 C 250.05685,33.385234 249.2087,32.921355 248.36055,32.472022 z "/><path id="path3690" style="fill:#0038ac;fill-opacity:1" d="M 248.36055,37.567021 C 248.36055,39.421 233.46901,27.361714 211.05133,26.512802 C 188.63516,24.161264 158.69592,33.018571 128.59899,41.939411 C 98.502062,50.838819 68.2505,59.830085 45.210481,57.499214 C 22.170459,56.646475 6.3427413,44.472367 5.0950169,45.100057 C 5.0950169,49.976129 5.0950169,212.16336 5.0950169,217.04096 C 6.3297279,216.23874 22.002055,228.52232 44.892808,229.4363 C 67.782795,231.83529 97.891978,222.86699 128.00038,213.92855 C 158.10957,204.99929 188.21874,196.07231 211.10797,198.49122 C 233.99872,199.42357 249.67104,211.70178 250.90499,210.90033 C 250.90499,206.02272 250.90499,43.835492 250.90499,38.95942 C 249.63124,38.236811 248.36055,37.567021 248.36055,37.567021 z "/><g id="g8082" transform="matrix(1,-0.20271,0,1,2.031746,24.724543)"><path id="use6104" style="fill:#ffd115;fill-opacity:1;stroke:none;stroke-width:1;stroke-linejoin:miter;stroke-miterlimit:4;stroke-dasharray:none;stroke-opacity:1;display:inline" transform="matrix(0.1870968,5.6456752e-3,-5.6456752e-3,0.1870968,141.319,73.64575)" d="M -74.133334,41.066666 L -111.80673,15.291982 L -147.83948,43.314479 L -134.96802,-0.47986804 L -172.75373,-26.089621 L -127.12533,-27.381332 L -114.44544,-71.231527 L -99.116996,-28.235502 L -53.494679,-29.726659 L -89.64958,-1.8619435 L -74.133334,41.066666 z "/><use xlink:href="#use6104" height="256" width="256" y="0" x="0" id="use3145" transform="translate(-45.88219,80.980594)"/><use xlink:href="#use6104" height="256" width="256" y="0" x="0" id="use3147" transform="translate(48.52943,83.945106)"/><use xlink:href="#use6104" height="256" width="256" y="0" x="0" id="use3149" transform="translate(50.367279,27.751395)"/><use xlink:href="#use6104" height="256" width="256" y="0" x="0" id="use3151" transform="translate(30.621792,6.9376809)"/><use xlink:href="#use6104" height="256" width="256" y="0" x="0" id="use3153" transform="translate(-28.570571,8.8182608)"/><use xlink:href="#use6104" height="256" width="256" y="0" x="0" id="use3155" transform="translate(-46.784044,27.445734)"/><use xlink:href="#use6104" height="256" width="256" y="0" x="0" id="use3157" transform="translate(57.250674,56.884079)"/><use xlink:href="#use6104" height="256" width="256" y="0" x="0" id="use3159" transform="translate(-53.933443,55.593943)"/><use xlink:href="#use6104" height="256" width="256" y="0" x="0" id="use3161" transform="translate(-28.490912,100.38799)"/><use xlink:href="#use6104" height="256" width="256" y="0" x="0" id="use3163" transform="translate(0.2916091,108.15196)"/><use xlink:href="#use6104" height="256" width="256" y="0" x="0" id="use3165" transform="translate(26.280374,102.92867)"/></g><g id="g3705" style="opacity:1;display:inline"><path id="path3707" style="fill:url(#linearGradient3709)" d="M 248.35974,206.96001 C 168.11962,164.50832 87.879509,258.33713 7.6401612,215.88544 C 7.6401612,160.27066 7.6401612,104.65509 7.6401612,49.039546 C 87.879509,91.490468 168.11962,-2.3375794 248.35974,40.114878 C 248.35974,95.729664 248.35974,151.34523 248.35974,206.96001 z "/></g></g></svg>