<?xml version="1.0" encoding="UTF-8" standalone="no"?>
<!-- Created with Inkscape (http://www.inkscape.org/) -->

<svg
   xmlns:a="http://ns.adobe.com/AdobeSVGViewerExtensions/3.0/"
   xmlns:dc="http://purl.org/dc/elements/1.1/"
   xmlns:cc="http://creativecommons.org/ns#"
   xmlns:rdf="http://www.w3.org/1999/02/22-rdf-syntax-ns#"
   xmlns:svg="http://www.w3.org/2000/svg"
   xmlns="http://www.w3.org/2000/svg"
   xmlns:xlink="http://www.w3.org/1999/xlink"
   xmlns:sodipodi="http://sodipodi.sourceforge.net/DTD/sodipodi-0.dtd"
   xmlns:inkscape="http://www.inkscape.org/namespaces/inkscape"
   version="1.0"
   width="48pt"
   height="48pt"
   viewBox="0 0 256 256"
   id="svg2"
   xml:space="preserve"
   sodipodi:version="0.32"
   inkscape:version="0.48.2 r9819"
   sodipodi:docname="SE1.svg"
   inkscape:output_extension="org.inkscape.output.svg.inkscape"><metadata
   id="metadata45"><rdf:RDF><cc:Work
       rdf:about=""><dc:format>image/svg+xml</dc:format><dc:type
         rdf:resource="http://purl.org/dc/dcmitype/StillImage" /><dc:title></dc:title></cc:Work></rdf:RDF></metadata><sodipodi:namedview
   inkscape:window-height="697"
   inkscape:window-width="675"
   inkscape:pageshadow="2"
   inkscape:pageopacity="0.0"
   guidetolerance="10.0"
   gridtolerance="10.0"
   objecttolerance="10.0"
   borderopacity="1.0"
   bordercolor="#666666"
   pagecolor="#ffffff"
   id="base"
   inkscape:zoom="6.275"
   inkscape:cx="30"
   inkscape:cy="30"
   inkscape:window-x="683"
   inkscape:window-y="0"
   inkscape:current-layer="svg2"
   showgrid="false"
   inkscape:window-maximized="1" /><defs
   id="defs271"><linearGradient
     x1="87.396973"
     y1="141.97266"
     x2="240.94727"
     y2="141.97266"
     id="XMLID_22_"
     gradientUnits="userSpaceOnUse"
     gradientTransform="matrix(1.567692,0,0,1.567692,-129.3706,-94.56783)">
								<stop
   style="stop-color:#ffffff;stop-opacity:0.66666675"
   offset="0"
   id="stop139" />
								
								<stop
   style="stop-color:#d7d7d7;stop-opacity:0.21875"
   offset="0.24074516"
   id="stop143" />
								<stop
   style="stop-color:#4d4d4d;stop-opacity:0"
   offset="0.4585622"
   id="stop145" /><stop
   style="stop-color:#ffffff;stop-opacity:0.51041669"
   offset="0.71891773"
   id="stop3696" /><stop
   style="stop-color:#f2f2f2;stop-opacity:0.40000001"
   offset="0.87351298"
   id="stop2807" /><stop
   style="stop-color:#ffffff;stop-opacity:0.62352943"
   offset="1"
   id="stop3694" />
								
								
								<a:midPointStop
   style="stop-color:#E9E9EF"
   offset="0" />
								<a:midPointStop
   style="stop-color:#E9E9EF"
   offset="0.5" />
								<a:midPointStop
   style="stop-color:#B1B1C5"
   offset="0.157303" />
								<a:midPointStop
   style="stop-color:#B1B1C5"
   offset="0.5" />
								<a:midPointStop
   style="stop-color:#CECEDB"
   offset="0.314607" />
								<a:midPointStop
   style="stop-color:#CECEDB"
   offset="0.5" />
								<a:midPointStop
   style="stop-color:#FFFFFF"
   offset="0.65" />
								<a:midPointStop
   style="stop-color:#FFFFFF"
   offset="0.5" />
								<a:midPointStop
   style="stop-color:#CECEDB"
   offset="0.837079" />
								<a:midPointStop
   style="stop-color:#CECEDB"
   offset="0.5" />
								<a:midPointStop
   style="stop-color:#FFFF66"
   offset="1" />
							</linearGradient><linearGradient
     x1="87.396973"
     y1="141.97266"
     x2="269.33331"
     y2="141.97276"
     id="linearGradient1945"
     xlink:href="#XMLID_22_"
     gradientUnits="userSpaceOnUse"
     gradientTransform="matrix(1.567692,0,0,1.567692,-129.3714,-94.56962)" /><linearGradient
     gradientTransform="matrix(1.567692,0,0,1.567692,-69.82581,15.22741)"
     x1="126.18921"
     y1="47.69384"
     x2="126.18921"
     y2="102.14398"
     id="linearGradient2360"
     gradientUnits="userSpaceOnUse">
								<stop
   style="stop-color:#a12830;stop-opacity:1;"
   offset="0"
   id="stop2362" />
								<stop
   style="stop-color:#a12830;stop-opacity:1;"
   offset="0.15730301"
   id="stop2364" />
								<stop
   style="stop-color:white;stop-opacity:1;"
   offset="0.35460699"
   id="stop2366" />
								<stop
   style="stop-color:white;stop-opacity:1;"
   offset="0.64999998"
   id="stop2368" />
								<stop
   style="stop-color:#a12830;stop-opacity:1;"
   offset="0.87707901"
   id="stop2370" />
								<stop
   style="stop-color:#a12830;stop-opacity:1;"
   offset="1"
   id="stop2372" />
								<a:midPointStop
   style="stop-color:#CF0000"
   offset="0" />
								<a:midPointStop
   style="stop-color:#CF0000"
   offset="0.5" />
								<a:midPointStop
   style="stop-color:#7C0000"
   offset="0.157303" />
								<a:midPointStop
   style="stop-color:#7C0000"
   offset="0.5" />
								<a:midPointStop
   style="stop-color:#CF0000"
   offset="0.314607" />
								<a:midPointStop
   style="stop-color:#CF0000"
   offset="0.5" />
								<a:midPointStop
   style="stop-color:#B80000"
   offset="0.65" />
								<a:midPointStop
   style="stop-color:#B80000"
   offset="0.5" />
								<a:midPointStop
   style="stop-color:#CF0000"
   offset="0.837079" />
								<a:midPointStop
   style="stop-color:#CF0000"
   offset="0.5" />
								<a:midPointStop
   style="stop-color:#FF0000"
   offset="1" />
							</linearGradient><linearGradient
     inkscape:collect="always"
     xlink:href="#XMLID_22_"
     id="linearGradient3008"
     gradientUnits="userSpaceOnUse"
     gradientTransform="matrix(1.567692,0,0,1.567692,-129.3714,-94.56962)"
     x1="87.396973"
     y1="141.97266"
     x2="269.33331"
     y2="141.97276" /></defs>
	
		
	



<polyline
   style="fill:none"
   points="0,256 0,0 256,0 256,256 "
   id="_x3C_Slice_x3E_" /><path
   inkscape:connector-curvature="0"
   d="M 248.36055,32.472022 C 167.27229,-10.429768 86.18327,85.849332 5.09502,40.005058 2.28113,38.417463 2e-5,39.212792 2e-5,42.029738 c 0,57.313382 0,114.627522 0,171.940902 0,2.81082 2.28111,6.57849 5.095,8.16455 81.9364,46.325 163.87357,-52.46409 245.80997,-6.13986 2.81388,1.58682 5.095,0.79226 5.095,-2.02469 0,-57.31338 0,-114.62752 0,-171.940902 0,-2.810823 -2.28112,-6.577723 -5.095,-8.165317 -0.84814,-0.479187 -1.69629,-0.943066 -2.54444,-1.392399 z"
   style="fill:#4d4d4d"
   id="path2400" /><path
   inkscape:connector-curvature="0"
   d="m 248.36055,37.567021 c 0,1.853979 -14.89154,-10.205307 -37.30922,-11.054219 -22.41617,-2.351538 -52.35541,6.505769 -82.45234,15.426609 C 98.50206,50.838819 68.2505,59.830085 45.21048,57.499214 22.17046,56.646475 6.34274,44.472367 5.09502,45.100057 c 0,4.876072 0,167.063303 0,171.940903 1.23471,-0.80222 16.90704,11.48136 39.79779,12.39534 22.88999,2.39899 52.99917,-6.56931 83.10757,-15.50775 30.10919,-8.92926 60.21836,-17.85624 83.10759,-15.43733 22.89075,0.93235 38.56307,13.21056 39.79702,12.40911 0,-4.87761 0,-167.064838 0,-171.94091 -1.27375,-0.722609 -2.54444,-1.392399 -2.54444,-1.392399 z"
   style="fill:#005293;fill-opacity:1"
   id="path2402" /><path
   inkscape:connector-curvature="0"
   d="m 7.64098,115.67486 c 0,13.90129 0,19.46746 0,33.36875 80.23934,41.4542 160.47947,-50.174726 240.71804,-8.7168 0,-13.90128 0,-19.46744 0,-33.36875 -80.24011,-41.457931 -160.4787,50.17174 -240.71804,8.7168 z"
   style="fill:#fecb00;fill-opacity:1"
   id="path2410"
   sodipodi:nodetypes="ccccc" /><polyline
   style="fill:none"
   points="0,256 0,0 256,0 256,256 "
   id="polyline3117" /><path
   style="fill:#fecb00;fill-opacity:1;fill-rule:nonzero;stroke:none"
   d="M 26.46875 11.5625 C 24.127845 12.280886 21.778401 12.934785 19.4375 13.40625 L 19.4375 52.53125 C 21.778473 52.059808 24.127773 51.374636 26.46875 50.65625 L 26.46875 11.5625 z "
   id="rect3785"
   transform="scale(4.2666667,4.2666667)" /><path
   inkscape:connector-curvature="0"
   id="path3186"
   style="fill:url(#linearGradient3008)"
   d="M 248.35974,206.96001 C 168.11962,164.50832 87.879509,258.33649 7.6401612,215.8848 c 0,-55.61478 0,-111.22819 0,-166.843733 C 87.879509,91.491989 168.11962,-2.3375794 248.35974,40.114878 c 0,55.614786 0,111.230352 0,166.845132 z"
   sodipodi:nodetypes="ccccc" /></svg>