<?xml version="1.0" encoding="UTF-8" standalone="no"?>
<!-- Created with Inkscape (http://www.inkscape.org/) -->
<svg xmlns:a="http://ns.adobe.com/AdobeSVGViewerExtensions/3.0/" xmlns:dc="http://purl.org/dc/elements/1.1/" xmlns:cc="http://creativecommons.org/ns#" xmlns:rdf="http://www.w3.org/1999/02/22-rdf-syntax-ns#" xmlns:svg="http://www.w3.org/2000/svg" xmlns="http://www.w3.org/2000/svg" xmlns:xlink="http://www.w3.org/1999/xlink" xmlns:sodipodi="http://sodipodi.sourceforge.net/DTD/sodipodi-0.dtd" xmlns:inkscape="http://www.inkscape.org/namespaces/inkscape" version="1.0" width="48pt" height="48pt" viewBox="0 0 256 256" id="svg2" xml:space="preserve" sodipodi:version="0.32" inkscape:version="0.48.4 r9939" sodipodi:docname="Nuvola_United_Kingdom_flag.svg" inkscape:output_extension="org.inkscape.output.svg.inkscape"><metadata id="metadata45"><rdf:RDF><cc:Work rdf:about=""><dc:format>image/svg+xml</dc:format><dc:type rdf:resource="http://purl.org/dc/dcmitype/StillImage"/><dc:title/></cc:Work></rdf:RDF></metadata><sodipodi:namedview inkscape:window-height="1080" inkscape:window-width="1920" inkscape:pageshadow="2" inkscape:pageopacity="0.0" guidetolerance="10.0" gridtolerance="10.0" objecttolerance="10.0" borderopacity="1.0" bordercolor="#666666" pagecolor="#ffffff" id="base" inkscape:zoom="14.883333" inkscape:cx="30" inkscape:cy="30" inkscape:window-x="0" inkscape:window-y="0" inkscape:current-layer="svg2" showgrid="true" inkscape:window-maximized="0"><inkscape:grid type="xygrid" id="grid3617"/></sodipodi:namedview><defs id="defs271"><linearGradient x1="87.396973" y1="141.97266" x2="240.94727" y2="141.97266" id="XMLID_22_" gradientUnits="userSpaceOnUse" gradientTransform="matrix(1.567692,0,0,1.567692,-129.3706,-94.56783)">
								<stop style="stop-color:#ffffff;stop-opacity:0.66666675" offset="0" id="stop139"/>
								
								<stop style="stop-color:#d7d7d7;stop-opacity:0.21875" offset="0.24074516" id="stop143"/>
								<stop style="stop-color:#4d4d4d;stop-opacity:0" offset="0.4585622" id="stop145"/><stop style="stop-color:#ffffff;stop-opacity:0.51041669" offset="0.71891773" id="stop3696"/><stop style="stop-color:#f2f2f2;stop-opacity:0.40000001" offset="0.87351298" id="stop2807"/><stop style="stop-color:#ffffff;stop-opacity:0.62352943" offset="1" id="stop3694"/>
								
								
								<a:midPointStop style="stop-color:#E9E9EF" offset="0"/>
								<a:midPointStop style="stop-color:#E9E9EF" offset="0.5"/>
								<a:midPointStop style="stop-color:#B1B1C5" offset="0.157303"/>
								<a:midPointStop style="stop-color:#B1B1C5" offset="0.5"/>
								<a:midPointStop style="stop-color:#CECEDB" offset="0.314607"/>
								<a:midPointStop style="stop-color:#CECEDB" offset="0.5"/>
								<a:midPointStop style="stop-color:#FFFFFF" offset="0.65"/>
								<a:midPointStop style="stop-color:#FFFFFF" offset="0.5"/>
								<a:midPointStop style="stop-color:#CECEDB" offset="0.837079"/>
								<a:midPointStop style="stop-color:#CECEDB" offset="0.5"/>
								<a:midPointStop style="stop-color:#FFFF66" offset="1"/>
							</linearGradient><linearGradient inkscape:collect="always" xlink:href="#XMLID_22_" id="linearGradient3188" gradientUnits="userSpaceOnUse" gradientTransform="matrix(1.567692,0,0,1.567692,-129.3714,-94.56962)" x1="87.396973" y1="141.97266" x2="269.33331" y2="141.97276"/><linearGradient y2="123.21392" x2="132.62358" y1="151.1393" x1="133.17909" gradientUnits="userSpaceOnUse" id="linearGradient2192" xlink:href="#XMLID_17_" inkscape:collect="always"/><linearGradient x1="126.18921" y1="39.617504" x2="126.18921" y2="112.30453" id="XMLID_17_" gradientUnits="userSpaceOnUse" gradientTransform="matrix(1.567692,0,0,1.567692,-69.82581,15.22741)">
								<stop style="stop-color:#c200be;stop-opacity:1;" offset="0" id="stop18"/>
								<stop style="stop-color:#c200be;stop-opacity:1;" offset="0.19460699" id="stop20"/>
								<stop style="stop-color:#1000ae;stop-opacity:1;" offset="0.31460699" id="stop22"/>
								<stop style="stop-color:#1000ae;stop-opacity:1;" offset="0.72999996" id="stop24"/>
								<stop style="stop-color:#00dab6;stop-opacity:1;" offset="0.85707897" id="stop26"/>
								<stop style="stop-color:#00dab6;stop-opacity:1;" offset="1" id="stop28"/>
								<a:midPointStop style="stop-color:#CF0000" offset="0"/>
								<a:midPointStop style="stop-color:#CF0000" offset="0.5"/>
								<a:midPointStop style="stop-color:#7C0000" offset="0.157303"/>
								<a:midPointStop style="stop-color:#7C0000" offset="0.5"/>
								<a:midPointStop style="stop-color:#CF0000" offset="0.314607"/>
								<a:midPointStop style="stop-color:#CF0000" offset="0.5"/>
								<a:midPointStop style="stop-color:#B80000" offset="0.65"/>
								<a:midPointStop style="stop-color:#B80000" offset="0.5"/>
								<a:midPointStop style="stop-color:#CF0000" offset="0.837079"/>
								<a:midPointStop style="stop-color:#CF0000" offset="0.5"/>
								<a:midPointStop style="stop-color:#FF0000" offset="1"/>
							</linearGradient><linearGradient inkscape:collect="always" xlink:href="#XMLID_17_" id="linearGradient2470" gradientUnits="userSpaceOnUse" x1="133.17909" y1="151.1393" x2="132.62358" y2="123.21392"/><linearGradient inkscape:collect="always" xlink:href="#XMLID_17_" id="linearGradient2487" gradientUnits="userSpaceOnUse" x1="133.17909" y1="151.1393" x2="132.62358" y2="123.21392" gradientTransform="translate(-310.63041,4.2745159)"/><clipPath clipPathUnits="userSpaceOnUse" id="clipPath5327"><rect style="stroke:none" id="rect5329" width="310.53146" height="192.31134" x="-359.84726" y="-183.36681" transform="matrix(0.8106897,-0.58547605,0.5979374,0.8015428,0,0)" ry="0" inkscape:transform-center-y="1.0750276"/></clipPath><clipPath clipPathUnits="userSpaceOnUse" id="clipPath5355"><rect style="stroke:none" id="rect5357" width="310.53146" height="192.31134" x="-122.03921" y="-26.830486" transform="matrix(0.8106897,-0.58547605,0.5979374,0.8015428,0,0)" ry="0" inkscape:transform-center-y="1.0750276"/></clipPath><clipPath clipPathUnits="userSpaceOnUse" id="clipPath5359"><rect style="stroke:none" id="rect5361" width="310.53146" height="192.31134" x="-122.03921" y="-26.830486" transform="matrix(0.8106897,-0.58547605,0.5979374,0.8015428,0,0)" ry="0" inkscape:transform-center-y="1.0750276"/></clipPath><clipPath clipPathUnits="userSpaceOnUse" id="clipPath5363"><rect style="stroke:none" id="rect5365" width="310.53146" height="192.31134" x="-122.03921" y="-26.830486" transform="matrix(0.8106897,-0.58547605,0.5979374,0.8015428,0,0)" ry="0" inkscape:transform-center-y="1.0750276"/></clipPath><clipPath clipPathUnits="userSpaceOnUse" id="clipPath5367"><rect style="stroke:none" id="rect5369" width="310.53146" height="192.31134" x="-122.03921" y="-26.830486" transform="matrix(0.8106897,-0.58547605,0.5979374,0.8015428,0,0)" ry="0" inkscape:transform-center-y="1.0750276"/></clipPath><clipPath clipPathUnits="userSpaceOnUse" id="clipPath5371"><rect style="stroke:none" id="rect5373" width="310.53146" height="192.31134" x="-122.03921" y="-26.830486" transform="matrix(0.8106897,-0.58547605,0.5979374,0.8015428,0,0)" ry="0" inkscape:transform-center-y="1.0750276"/></clipPath><clipPath clipPathUnits="userSpaceOnUse" id="clipPath5375"><rect style="stroke:none" id="rect5377" width="310.53146" height="192.31134" x="-122.03921" y="-26.830486" transform="matrix(0.8106897,-0.58547605,0.5979374,0.8015428,0,0)" ry="0" inkscape:transform-center-y="1.0750276"/></clipPath><clipPath clipPathUnits="userSpaceOnUse" id="clipPath5448"><rect style="stroke:none" id="rect5450" width="310.53146" height="192.31134" x="-122.03921" y="-26.830486" transform="matrix(0.8106897,-0.58547605,0.5979374,0.8015428,0,0)" ry="0" inkscape:transform-center-y="1.0750276"/></clipPath></defs>
	
		
	



<path inkscape:connector-curvature="0" id="path15" style="fill:#4d4d4d" d="M 248.36055,32.472022 C 167.27229,-10.429768 86.183274,85.849332 5.0950169,40.005058 2.2811336,38.417463 1.7853684e-5,39.212792 1.7853684e-5,42.029738 c 0,57.313381 0,114.627522 0,171.940902 0,2.81082 2.281115746316,6.57849 5.094999046316,8.16455 81.9363991,46.325 163.8735731,-52.46409 245.8099731,-6.13986 2.81388,1.58682 5.095,0.79226 5.095,-2.02469 0,-57.31338 0,-114.627521 0,-171.940902 0,-2.810823 -2.28112,-6.577723 -5.095,-8.165317 -0.84814,-0.479187 -1.69629,-0.943066 -2.54444,-1.392399 z"/><path inkscape:connector-curvature="0" id="path30" style="fill:#00247d;fill-opacity:1" d="m 248.36055,37.567021 c 0,1.853979 -14.89154,-10.205307 -37.30922,-11.054219 -22.41617,-2.351538 -52.35541,6.505769 -82.45234,15.426609 C 98.502062,50.838819 68.2505,59.830085 45.210481,57.499214 22.170459,56.646475 6.3427413,44.472367 5.0950169,45.100057 c 0,4.876072 0,167.063303 0,171.940903 1.234711,-0.80222 16.9070381,11.48136 39.7977911,12.39534 22.889987,2.39899 52.99917,-6.56931 83.107572,-15.50775 30.10919,-8.92926 60.21836,-17.85624 83.10759,-15.43733 22.89075,0.93235 38.56307,13.21056 39.79702,12.40911 0,-4.87761 0,-167.064838 0,-171.94091 -1.27375,-0.722609 -2.54444,-1.392399 -2.54444,-1.392399 z"/><polyline style="fill:none" points="0,256 0,0 256,0 256,256 " id="polyline3117"/><path inkscape:connector-curvature="0" id="path2202" style="fill:#ffffff;fill-opacity:1" d="m 7.5989333,201.37002 c 0,5.91324 0,8.87393 0,14.47545 6.8961897,3.76338 16.9216277,7.80504 28.6701017,10.04447 C 93.188814,194.79225 182.00217,74.363433 248.39895,54.096041 c 0,-5.69013 0,-8.202687 0,-14.205167 -5.10932,-3.153377 -16.46319,-6.553108 -22.92307,-8.58124 C 166.12151,61.273196 62.825441,187.02777 7.5989333,201.37002 z" sodipodi:nodetypes="ccccccc"/><path inkscape:connector-curvature="0" id="path5112" style="fill:#ffffff;fill-opacity:1" d="m 7.5989333,69.763719 c 0,-6.456657 0,-15.837633 0,-21.342426 7.1429967,4.13359 17.1895347,7.21848 27.0626607,10.26163 41.988352,57.610097 177.702116,62.530677 213.737356,127.092117 0,10.4319 0,12.34745 0,21.25463 -5.10932,-3.15338 -21.27859,-8.17403 -28.27022,-10.05023 C 167.31359,137.06938 35.724062,127.00085 7.5989333,69.763719 z" sodipodi:nodetypes="ccccccc"/><path inkscape:connector-curvature="0" id="path7346" style="fill:#e3001c;fill-opacity:1" d="m 7.5989333,62.174338 c 0,-6.456657 0,-8.358217 0,-13.86301 34.5366927,45.365578 60.7837877,55.652632 120.5553567,78.936262 46.06803,2.19443 95.42854,29.55326 120.24466,66.23688 0,10.4319 0,4.52806 0,13.43524 C 210.99215,162.96951 169.66484,138.2304 125.95609,133.97439 85.719965,125.06035 28.58462,97.313201 7.5989333,62.174338 z" sodipodi:nodetypes="ccccccc"/><path inkscape:connector-curvature="0" id="path8317" style="fill:#e3001c;fill-opacity:1" d="M 119.79017,124.44619 C 83.660145,163.44384 70.297286,186.08631 7.5989333,215.75565 14.495123,219.51903 20.011659,221.62831 26.478269,223.48126 72.59769,199.4961 104.87197,157.7656 125.32856,130.84021 158.29361,103.41123 193.74439,64.330575 248.39895,39.801047 243.28963,36.64767 240.18061,35.953282 233.72073,33.92515 189.70002,57.507468 153.92412,93.458947 119.79017,124.44619 z" sodipodi:nodetypes="ccccccc"/><path inkscape:connector-curvature="0" id="path2442" style="fill:#ffffff;fill-opacity:1" d="m 7.5989333,101.71098 c 0,5.91324 0,53.06514 0,58.66666 80.2393497,40.70225 160.5614367,-49.2385 240.8000167,-8.53333 0,-5.69013 0,-52.930843 0,-58.933323 C 168.419,50.426327 86.052373,144.71973 7.5989333,101.71098 z" sodipodi:nodetypes="ccccc"/><path inkscape:connector-curvature="0" id="path4435" style="fill:#ffffff;fill-opacity:1" d="m 99.294396,53.13674 c 0,5.91324 -0.107895,161.53721 -0.107895,167.13873 19.537329,-5.61456 39.197289,-12.10962 53.189429,-16.37596 0,-5.69013 0.0592,-160.830677 0.0592,-166.833157 -10.59873,3.328648 -38.68735,12.209299 -53.140694,16.070387 z" sodipodi:nodetypes="ccccc"/><path inkscape:connector-curvature="0" id="path4437" style="fill:#e3001c;fill-opacity:1" d="m 111.29346,49.6756 c 0,5.91324 -0.0347,161.36046 -0.0347,166.96198 6.98789,-1.90276 24.81842,-7.6306 29.61942,-9.15728 0,-5.69013 0.0592,-160.800348 0.0592,-166.802828 -11.48249,3.417024 -23.93981,7.5232 -29.6439,8.998128 z" sodipodi:nodetypes="ccccc"/><path inkscape:connector-curvature="0" id="path9466" style="fill:#e3001c;fill-opacity:1" d="m 7.5989333,113.19875 c 0,5.91325 0,29.51304 0,35.11456 80.2393497,40.70225 160.5614367,-50.050641 240.8000167,-9.34547 0,-5.69013 0,-28.5666 0,-34.56909 -79.97995,-42.484652 -162.346577,51.80876 -240.8000167,8.8 z" sodipodi:nodetypes="ccccc"/><path transform="translate(289.74632,-0.1385605)" inkscape:connector-curvature="0" id="path30-1" style="fill:#bf0a30;fill-opacity:1" d="m -41.328431,37.587311 c 0,1.853979 -14.89155,-10.205307 -37.30923,-11.054219 -22.416169,-2.351538 -52.355409,6.505769 -82.452339,15.426609 -30.09693,8.899408 -60.34849,17.890674 -83.38851,15.559803 -23.04002,-0.852739 -38.86774,-13.026847 -40.11546,-12.399157 0,4.876072 0,167.063313 0,171.940913 1.23471,-0.80222 16.90703,11.48136 39.79779,12.39534 22.88998,2.39899 52.99917,-6.56931 83.10757,-15.50775 30.10919,-8.92926 60.21836,-17.85624 83.107589,-15.43733 22.89075,0.93235 38.56308,13.21056 39.79703,12.40911 0,-4.87761 0,-167.064848 0,-171.94092 -1.27375,-0.722609 -2.54444,-1.392399 -2.54444,-1.392399 z" clip-path="url(#clipPath5327)"/><path transform="translate(6.17305,11.648525)" inkscape:connector-curvature="0" sodipodi:nodetypes="cccccccccccc" id="path9969" style="fill:#ffffff;fill-opacity:1;stroke:none" d="m 244.92046,33.550848 c 0,1.853979 -14.89154,-10.205307 -37.30922,-11.054219 C 185.19507,20.145091 155.25583,29.002398 125.1589,37.923238 95.06197,46.822646 64.81041,55.813912 41.77039,53.483041 18.73037,52.630302 2.9026504,40.456194 1.6549304,41.083884 c 0,4.876072 0,8.274114 0,13.151714 1.23471,-0.80222 16.9070296,10.962441 39.7977896,11.876421 22.88998,2.39899 52.99879,-6.242004 83.10719,-15.180444 30.10919,-8.92926 60.21874,-18.010573 83.10797,-15.591663 22.89075,0.93235 38.56307,14.075425 39.79702,13.273975 0,-4.87761 0,-8.794568 0,-13.67064 -1.27375,-0.722609 -2.54444,-1.392399 -2.54444,-1.392399 z" clip-path="url(#clipPath5375)"/><path transform="translate(6.17305,11.648525)" inkscape:connector-curvature="0" d="m 244.92046,60.509741 c 0,1.853979 -14.89154,-10.205307 -37.30922,-11.054219 C 185.19507,47.103984 155.25583,55.961291 125.1589,64.882131 95.06197,73.781539 64.81041,82.77281 41.77039,80.44193 18.73037,79.5892 2.9026504,67.415087 1.6549304,68.042777 c 0,4.876072 0,8.274113 0,13.151713 1.23471,-0.80222 16.9070296,10.962437 39.7977896,11.876417 22.88998,2.39899 52.99879,-6.242 83.10719,-15.180437 30.10919,-8.929262 60.21874,-18.010575 83.10797,-15.591665 22.89075,0.93235 38.56307,14.075425 39.79702,13.273975 0,-4.87761 0,-8.794568 0,-13.67064 -1.27375,-0.722609 -2.54444,-1.392399 -2.54444,-1.392399 z" style="fill:#ffffff;fill-opacity:1;stroke:none" id="path9975" sodipodi:nodetypes="cccccccccccc" clip-path="url(#clipPath5371)"/><path transform="translate(6.17305,11.648525)" inkscape:connector-curvature="0" d="m 244.94579,87.272957 c 0,1.85398 -14.89154,-10.205308 -37.30922,-11.054217 C 185.2204,73.867202 155.28116,82.724509 125.18423,91.645347 95.087301,100.54475 64.835741,109.53602 41.795721,107.20514 18.755701,106.35241 2.9279817,94.178297 1.6802617,94.805987 c 0,4.87607 0,8.274113 0,13.151713 1.23471,-0.80222 16.9070293,10.96244 39.7977893,11.87642 22.88998,2.39899 52.99879,-6.242 83.107189,-15.18044 30.10919,-8.929263 60.21874,-18.010573 83.10797,-15.591663 22.89075,0.93235 38.56307,14.075423 39.79702,13.273973 0,-4.877613 0,-8.794563 0,-13.670633 -1.27375,-0.72261 -2.54444,-1.3924 -2.54444,-1.3924 z" style="fill:#ffffff;fill-opacity:1;stroke:none" id="path9979" sodipodi:nodetypes="cccccccccccc" clip-path="url(#clipPath5367)"/><path transform="translate(6.17305,11.648525)" inkscape:connector-curvature="0" sodipodi:nodetypes="cccccccccccc" id="path9983" style="fill:#ffffff;fill-opacity:1;stroke:none" d="m 244.92046,114.65126 c 0,1.85398 -14.89154,-10.20531 -37.30922,-11.05422 -22.41617,-2.35153 -52.35541,6.50577 -82.45234,15.42661 -30.09693,8.8994 -60.34849,17.89067 -83.38851,15.55979 C 18.73037,133.73071 2.9026504,121.5566 1.6549304,122.18429 c 0,4.87607 0,8.27411 0,13.15171 1.23471,-0.80222 16.9070296,10.96244 39.7977896,11.87642 22.88998,2.39899 52.99879,-6.242 83.10719,-15.18044 30.10919,-8.92926 60.21874,-18.01057 83.10797,-15.59166 22.89075,0.93235 38.56307,14.07542 39.79702,13.27397 0,-4.87761 0,-8.79456 0,-13.67063 -1.27375,-0.72261 -2.54444,-1.3924 -2.54444,-1.3924 z" clip-path="url(#clipPath5363)"/><path inkscape:connector-curvature="0" style="fill:#002868;fill-opacity:1;stroke:none" d="m 113.94687,138.5839 0,-92.535446 C 88.840294,53.28203 64.462554,59.28248 45.151124,57.328817 22.111104,56.476077 6.2833853,44.301967 5.0356653,44.929657 c 0,4.87607 0,87.764953 0,92.642553 1.23471,-0.80222 16.9070287,11.39052 39.7977887,12.3045 19.315512,2.02436 43.855139,-4.04962 69.113416,-11.29281 z" id="path9995" sodipodi:nodetypes="ccccccc"/><path transform="translate(6.17305,11.648525)" inkscape:connector-curvature="0" d="m 244.91304,141.74252 c 0,1.85397 -14.89154,-10.20531 -37.30922,-11.05422 -22.41617,-2.35154 -52.35541,6.50577 -82.45234,15.4266 -30.09693,8.89941 -60.34849,17.89067 -83.38851,15.5598 -23.04002,-0.85274 -38.8677389,-13.02684 -40.1154589,-12.39915 0,4.87607 0,8.27411 0,13.15171 1.23471,-0.80222 16.9070289,10.96243 39.7977889,11.87641 22.88998,2.39899 52.99879,-6.242 83.10719,-15.18043 30.10919,-8.92926 60.21874,-18.01057 83.10797,-15.59166 22.89075,0.93235 38.56307,14.07542 39.79702,13.27397 0,-4.87761 0,-8.79457 0,-13.67064 -1.27375,-0.7226 -2.54444,-1.39239 -2.54444,-1.39239 z" style="fill:#ffffff;fill-opacity:1;stroke:none" id="path9985" sodipodi:nodetypes="cccccccccccc" clip-path="url(#clipPath5359)"/><g id="g3853" transform="matrix(1.0274154,0,0,1.0020892,-13.8234,-2.7686511)" style="fill:#ffffff;fill-opacity:1;stroke:#feffff;stroke-width:0.41549525;stroke-miterlimit:4;stroke-opacity:1;stroke-dasharray:none"><g transform="translate(1.0378357,3.8054057)" id="g2267" style="fill:#ffffff;fill-opacity:1;stroke:#feffff;stroke-width:0.41549525;stroke-miterlimit:4;stroke-opacity:1;stroke-dasharray:none"><path inkscape:connector-curvature="0" style="fill:#ffffff;fill-opacity:1;stroke:#feffff;stroke-width:0.41549525;stroke-miterlimit:4;stroke-opacity:1;stroke-dasharray:none" d="m 23.658279,52.344291 -0.924961,2.9872 -2.969176,0.04355 2.401328,1.79667 -0.916743,2.98708 2.409552,-1.87575 2.409411,1.80507 -0.916744,-2.96019 2.401335,-1.8671 -2.969176,0.04355 -0.924826,-2.96008 z" id="path2237" sodipodi:nodetypes="ccccccccccc"/><path inkscape:connector-curvature="0" style="fill:#ffffff;fill-opacity:1;stroke:#feffff;stroke-width:0.41549525;stroke-miterlimit:4;stroke-opacity:1;stroke-dasharray:none" d="m 23.6943,88.394301 -0.924961,2.9872 -2.969175,0.04355 2.401327,1.79667 -0.916742,2.98708 2.409551,-1.87575 2.409411,1.80507 -0.916744,-2.96019 2.401335,-1.8671 -2.969176,0.04355 -0.924826,-2.96008 z" id="path2243" sodipodi:nodetypes="ccccccccccc"/><path inkscape:connector-curvature="0" style="fill:#ffffff;fill-opacity:1;stroke:#feffff;stroke-width:0.41549525;stroke-miterlimit:4;stroke-opacity:1;stroke-dasharray:none" d="m 23.496035,71.208809 -0.924961,2.9872 -2.969176,0.04355 2.401328,1.79667 -0.916743,2.98708 2.409552,-1.87575 2.409411,1.80507 -0.916744,-2.96019 2.401335,-1.8671 -2.969176,0.04355 -0.924826,-2.96008 z" id="path2249" sodipodi:nodetypes="ccccccccccc"/><path inkscape:connector-curvature="0" style="fill:#ffffff;fill-opacity:1;stroke:#feffff;stroke-width:0.41549525;stroke-miterlimit:4;stroke-opacity:1;stroke-dasharray:none" d="m 23.658279,107.5412 -0.924961,2.9872 -2.969176,0.0435 2.401328,1.79667 -0.916743,2.98708 2.409552,-1.87575 2.409411,1.80507 -0.916744,-2.96019 2.401335,-1.8671 -2.969176,0.0435 -0.924826,-2.96008 z" id="path2255" sodipodi:nodetypes="ccccccccccc"/><path inkscape:connector-curvature="0" style="fill:#ffffff;fill-opacity:1;stroke:#feffff;stroke-width:0.41549525;stroke-miterlimit:4;stroke-opacity:1;stroke-dasharray:none" d="m 23.658279,125.16762 -0.924961,2.9872 -2.969176,0.0436 2.401328,1.79667 -0.916743,2.98708 2.409552,-1.87575 2.409411,1.80507 -0.916744,-2.96019 2.401335,-1.8671 -2.969176,0.0436 -0.924826,-2.96008 z" id="path2261" sodipodi:nodetypes="ccccccccccc"/></g><g transform="translate(22.218147,10.393468)" id="g2411" style="fill:#ffffff;fill-opacity:1;stroke:#feffff;stroke-width:0.41549525;stroke-miterlimit:4;stroke-opacity:1;stroke-dasharray:none"><path inkscape:connector-curvature="0" style="fill:#ffffff;fill-opacity:1;stroke:#feffff;stroke-width:0.41549525;stroke-miterlimit:4;stroke-opacity:1;stroke-dasharray:none" d="m 18.900388,51.457969 -0.924961,2.9872 -2.969175,0.04355 2.401327,1.79667 -0.916743,2.98708 2.409552,-1.87575 2.409411,1.80507 -0.916744,-2.96019 2.401335,-1.8671 -2.969176,0.04355 -0.924826,-2.96008 z" id="path2413" sodipodi:nodetypes="ccccccccccc"/><path inkscape:connector-curvature="0" style="fill:#ffffff;fill-opacity:1;stroke:#feffff;stroke-width:0.41549525;stroke-miterlimit:4;stroke-opacity:1;stroke-dasharray:none" d="m 18.900388,87.866525 -0.924961,2.9872 -2.969175,0.04355 2.401327,1.79667 -0.916742,2.98708 2.409551,-1.87575 2.409411,1.80507 -0.916744,-2.96019 2.401335,-1.8671 -2.969176,0.04355 -0.924826,-2.96008 z" id="path2415" sodipodi:nodetypes="ccccccccccc"/><path inkscape:connector-curvature="0" style="fill:#ffffff;fill-opacity:1;stroke:#feffff;stroke-width:0.41549525;stroke-miterlimit:4;stroke-opacity:1;stroke-dasharray:none" d="m 18.900389,70.77306 -0.924961,2.9872 -2.969176,0.04355 2.401328,1.79667 -0.916743,2.98708 2.409552,-1.87575 2.409411,1.80507 -0.916744,-2.96019 2.401335,-1.8671 -2.969176,0.04355 -0.924826,-2.96008 z" id="path2417" sodipodi:nodetypes="ccccccccccc"/><path inkscape:connector-curvature="0" style="fill:#ffffff;fill-opacity:1;stroke:#feffff;stroke-width:0.41549525;stroke-miterlimit:4;stroke-opacity:1;stroke-dasharray:none" d="m 19.042176,105.88924 -0.924961,2.9872 -2.969176,0.0435 2.401328,1.79667 -0.916743,2.98708 2.409552,-1.87575 2.409411,1.80507 -0.916744,-2.96019 2.401335,-1.8671 -2.969176,0.0436 -0.924826,-2.96008 z" id="path2419" sodipodi:nodetypes="ccccccccccc"/><path inkscape:connector-curvature="0" style="fill:#ffffff;fill-opacity:1;stroke:#feffff;stroke-width:0.41549525;stroke-miterlimit:4;stroke-opacity:1;stroke-dasharray:none" d="m 19.096155,125.14914 -0.924961,2.9872 -2.969176,0.0436 2.401328,1.79667 -0.916743,2.98708 2.409552,-1.87575 2.409411,1.80507 -0.916744,-2.96019 2.401335,-1.8671 -2.969176,0.0435 -0.924826,-2.96008 z" id="path2421" sodipodi:nodetypes="ccccccccccc"/></g><g transform="translate(42.536468,13.348859)" id="g2443" style="fill:#ffffff;fill-opacity:1;stroke:#feffff;stroke-width:0.41549525;stroke-miterlimit:4;stroke-opacity:1;stroke-dasharray:none"><path inkscape:connector-curvature="0" style="fill:#ffffff;fill-opacity:1;stroke:#feffff;stroke-width:0.41549525;stroke-miterlimit:4;stroke-opacity:1;stroke-dasharray:none" d="m 15.568404,50.594653 -0.924961,2.9872 -2.969176,0.04355 2.401328,1.79667 -0.916743,2.98708 2.409552,-1.87575 2.409411,1.80507 -0.916744,-2.96019 2.401335,-1.8671 -2.969176,0.04355 -0.924826,-2.96008 z" id="path2445" sodipodi:nodetypes="ccccccccccc"/><path inkscape:connector-curvature="0" style="fill:#ffffff;fill-opacity:1;stroke:#feffff;stroke-width:0.41549525;stroke-miterlimit:4;stroke-opacity:1;stroke-dasharray:none" d="m 15.568404,87.629516 -0.924961,2.9872 -2.969175,0.04355 2.401327,1.79667 -0.916742,2.98708 2.409551,-1.87575 2.409411,1.80507 -0.916744,-2.96019 2.401335,-1.8671 -2.969176,0.04355 -0.924826,-2.96008 z" id="path2447" sodipodi:nodetypes="ccccccccccc"/><path inkscape:connector-curvature="0" style="fill:#ffffff;fill-opacity:1;stroke:#feffff;stroke-width:0.41549525;stroke-miterlimit:4;stroke-opacity:1;stroke-dasharray:none" d="m 15.568404,70.06203 -0.924961,2.9872 -2.969176,0.04355 2.401328,1.79667 -0.916743,2.98708 2.409552,-1.87575 2.409411,1.80507 -0.916744,-2.96019 2.401335,-1.8671 -2.969176,0.04355 -0.924826,-2.96008 z" id="path2449" sodipodi:nodetypes="ccccccccccc"/><path inkscape:connector-curvature="0" style="fill:#ffffff;fill-opacity:1;stroke:#feffff;stroke-width:0.41549525;stroke-miterlimit:4;stroke-opacity:1;stroke-dasharray:none" d="m 15.568404,105.3387 -0.924961,2.9872 -2.969176,0.0435 2.401328,1.79667 -0.916743,2.98708 2.409552,-1.87575 2.409411,1.80507 -0.916744,-2.96019 2.401335,-1.8671 -2.969176,0.0435 -0.924826,-2.96008 z" id="path2451" sodipodi:nodetypes="ccccccccccc"/><path inkscape:connector-curvature="0" style="fill:#ffffff;fill-opacity:1;stroke:#feffff;stroke-width:0.41549525;stroke-miterlimit:4;stroke-opacity:1;stroke-dasharray:none" d="m 15.498277,124.64645 -0.924961,2.9872 -2.969176,0.0435 2.401328,1.79667 -0.916743,2.98708 2.409552,-1.87575 2.409411,1.80507 -0.916744,-2.96019 2.401335,-1.8671 -2.969176,0.0436 -0.924826,-2.96008 z" id="path2453" sodipodi:nodetypes="ccccccccccc"/></g><g transform="translate(63.593638,12.486871)" id="g2475" style="fill:#ffffff;fill-opacity:1;stroke:#feffff;stroke-width:0.41549525;stroke-miterlimit:4;stroke-opacity:1;stroke-dasharray:none"><path inkscape:connector-curvature="0" style="fill:#ffffff;fill-opacity:1;stroke:#feffff;stroke-width:0.41549525;stroke-miterlimit:4;stroke-opacity:1;stroke-dasharray:none" d="m 14.466379,50.989004 -0.924961,2.9872 -2.969177,0.04355 2.401329,1.79667 -0.916743,2.98708 2.409552,-1.87575 2.409411,1.80507 -0.916744,-2.96019 2.401335,-1.8671 -2.969176,0.04355 -0.924826,-2.96008 z" id="path2477" sodipodi:nodetypes="ccccccccccc"/><path inkscape:connector-curvature="0" style="fill:#ffffff;fill-opacity:1;stroke:#feffff;stroke-width:0.41549525;stroke-miterlimit:4;stroke-opacity:1;stroke-dasharray:none" d="m 14.466882,87.629516 -0.924961,2.9872 -2.969176,0.04355 2.401328,1.79667 -0.916742,2.98708 2.409551,-1.87575 2.409411,1.80507 -0.916744,-2.96019 2.401335,-1.8671 -2.969176,0.04355 -0.924826,-2.96008 z" id="path2479" sodipodi:nodetypes="ccccccccccc"/><path inkscape:connector-curvature="0" style="fill:#ffffff;fill-opacity:1;stroke:#feffff;stroke-width:0.41549525;stroke-miterlimit:4;stroke-opacity:1;stroke-dasharray:none" d="m 14.466882,70.034153 -0.924961,2.9872 -2.969176,0.04355 2.401328,1.79667 -0.916743,2.98708 2.409552,-1.87575 2.409411,1.80507 -0.916744,-2.96019 2.401335,-1.8671 -2.969176,0.04355 -0.924826,-2.96008 z" id="path2481" sodipodi:nodetypes="ccccccccccc"/><path inkscape:connector-curvature="0" style="fill:#ffffff;fill-opacity:1;stroke:#feffff;stroke-width:0.41549525;stroke-miterlimit:4;stroke-opacity:1;stroke-dasharray:none" d="m 14.466882,105.3387 -0.924961,2.9872 -2.969176,0.0435 2.401328,1.79667 -0.916743,2.98708 2.409552,-1.87575 2.409411,1.80507 -0.916744,-2.96019 2.401335,-1.8671 -2.969176,0.0435 -0.924826,-2.96008 z" id="path2483" sodipodi:nodetypes="ccccccccccc"/><path inkscape:connector-curvature="0" style="fill:#ffffff;fill-opacity:1;stroke:#feffff;stroke-width:0.41549525;stroke-miterlimit:4;stroke-opacity:1;stroke-dasharray:none" d="m 14.697512,124.71459 -0.924961,2.9872 -2.969175,0.0435 2.401327,1.79667 -0.916743,2.98708 2.409552,-1.87575 2.409411,1.80507 -0.916744,-2.96019 2.401335,-1.8671 -2.969176,0.0436 -0.924826,-2.96008 z" id="path2485" sodipodi:nodetypes="ccccccccccc"/></g><g transform="translate(84.15824,8.7926298)" id="g2507" style="fill:#ffffff;fill-opacity:1;stroke:#feffff;stroke-width:0.41549525;stroke-miterlimit:4;stroke-opacity:1;stroke-dasharray:none"><path inkscape:connector-curvature="0" style="fill:#ffffff;fill-opacity:1;stroke:#feffff;stroke-width:0.41549525;stroke-miterlimit:4;stroke-opacity:1;stroke-dasharray:none" d="m 13.298168,51.550236 -0.924961,2.9872 -2.9691757,0.04355 2.4013277,1.79667 -0.916743,2.98708 2.409552,-1.87575 2.409411,1.80507 -0.916744,-2.96019 2.401335,-1.8671 -2.969176,0.04355 -0.924826,-2.96008 z" id="path2509" sodipodi:nodetypes="ccccccccccc"/><path inkscape:connector-curvature="0" style="fill:#ffffff;fill-opacity:1;stroke:#feffff;stroke-width:0.41549525;stroke-miterlimit:4;stroke-opacity:1;stroke-dasharray:none" d="m 13.298168,88.267639 -0.924961,2.9872 -2.9691746,0.04355 2.4013266,1.79667 -0.916742,2.98708 2.409551,-1.87575 2.409411,1.80507 -0.916744,-2.96019 2.401335,-1.8671 -2.969176,0.04355 -0.924826,-2.96008 z" id="path2511" sodipodi:nodetypes="ccccccccccc"/><path inkscape:connector-curvature="0" style="fill:#ffffff;fill-opacity:1;stroke:#feffff;stroke-width:0.41549525;stroke-miterlimit:4;stroke-opacity:1;stroke-dasharray:none" d="m 13.298168,70.533259 -0.924961,2.9872 -2.9691756,0.04355 2.4013276,1.79667 -0.916743,2.98708 2.409552,-1.87575 2.409411,1.80507 -0.916744,-2.96019 2.401335,-1.8671 -2.969176,0.04355 -0.924826,-2.96008 z" id="path2513" sodipodi:nodetypes="ccccccccccc"/><path inkscape:connector-curvature="0" style="fill:#ffffff;fill-opacity:1;stroke:#feffff;stroke-width:0.41549525;stroke-miterlimit:4;stroke-opacity:1;stroke-dasharray:none" d="m 13.298168,106.16548 -0.924961,2.9872 -2.9691744,0.0435 2.4013264,1.79667 -0.916743,2.98708 2.409552,-1.87575 2.409411,1.80507 -0.916744,-2.96019 2.401335,-1.8671 -2.969176,0.0435 -0.924826,-2.96008 z" id="path2515" sodipodi:nodetypes="ccccccccccc"/><path inkscape:connector-curvature="0" style="fill:#ffffff;fill-opacity:1;stroke:#feffff;stroke-width:0.41549525;stroke-miterlimit:4;stroke-opacity:1;stroke-dasharray:none" d="m 13.412403,124.94491 -0.924961,2.9872 -2.9691755,0.0436 2.4013275,1.79667 -0.916743,2.98708 2.409552,-1.87575 2.409411,1.80507 -0.916744,-2.96019 2.401335,-1.8671 -2.969176,0.0435 -0.924826,-2.96008 z" id="path2517" sodipodi:nodetypes="ccccccccccc"/></g><g transform="translate(103.6761,2.3200488)" id="g2539" style="fill:#ffffff;fill-opacity:1;stroke:#feffff;stroke-width:0.41549525;stroke-miterlimit:4;stroke-opacity:1;stroke-dasharray:none"><path inkscape:connector-curvature="0" style="fill:#ffffff;fill-opacity:1;stroke:#feffff;stroke-width:0.41549525;stroke-miterlimit:4;stroke-opacity:1;stroke-dasharray:none" d="m 12.929908,53.09635 -0.924961,2.9872 -2.9691759,0.04355 2.4013279,1.79667 -0.916743,2.98708 2.409552,-1.87575 2.409411,1.80507 -0.916744,-2.96019 2.401335,-1.8671 -2.969176,0.04355 -0.924826,-2.96008 z" id="path2541" sodipodi:nodetypes="ccccccccccc"/><path inkscape:connector-curvature="0" style="fill:#ffffff;fill-opacity:1;stroke:#feffff;stroke-width:0.41549525;stroke-miterlimit:4;stroke-opacity:1;stroke-dasharray:none" d="m 12.668288,89.923208 -0.924961,2.9872 -2.9691767,0.04355 2.4013287,1.79667 -0.916742,2.98708 2.409551,-1.87575 2.409411,1.80507 -0.916744,-2.96019 2.401335,-1.8671 -2.969176,0.04355 -0.924826,-2.96008 z" id="path2543" sodipodi:nodetypes="ccccccccccc"/><path inkscape:connector-curvature="0" style="fill:#ffffff;fill-opacity:1;stroke:#feffff;stroke-width:0.41549525;stroke-miterlimit:4;stroke-opacity:1;stroke-dasharray:none" d="m 12.894098,72.17015 -0.924961,2.9872 -2.9691763,0.04355 2.4013283,1.79667 -0.916743,2.98708 2.409552,-1.87575 2.409411,1.80507 -0.916744,-2.96019 2.401335,-1.8671 -2.969176,0.04355 -0.924826,-2.96008 z" id="path2545" sodipodi:nodetypes="ccccccccccc"/><path inkscape:connector-curvature="0" style="fill:#ffffff;fill-opacity:1;stroke:#feffff;stroke-width:0.41549525;stroke-miterlimit:4;stroke-opacity:1;stroke-dasharray:none" d="m 12.894098,107.57058 -0.924961,2.9872 -2.9691767,0.0436 2.4013287,1.79667 -0.916743,2.98708 2.409552,-1.87575 2.409411,1.80507 -0.916744,-2.96019 2.401335,-1.8671 -2.969176,0.0435 -0.924826,-2.96008 z" id="path2547" sodipodi:nodetypes="ccccccccccc"/><path inkscape:connector-curvature="0" style="fill:#ffffff;fill-opacity:1;stroke:#feffff;stroke-width:0.41549525;stroke-miterlimit:4;stroke-opacity:1;stroke-dasharray:none" d="m 12.915216,126.38799 -0.924961,2.9872 -2.969177,0.0436 2.401329,1.79667 -0.916743,2.98708 2.409552,-1.87575 2.409411,1.80507 -0.916744,-2.96019 2.401335,-1.8671 -2.969176,0.0436 -0.924826,-2.96008 z" id="path2549" sodipodi:nodetypes="ccccccccccc"/></g><g transform="translate(11.874273,-4.3219211)" id="g2385" style="fill:#ffffff;fill-opacity:1;stroke:#feffff;stroke-width:0.41549525;stroke-miterlimit:4;stroke-opacity:1;stroke-dasharray:none"><path inkscape:connector-curvature="0" style="fill:#ffffff;fill-opacity:1;stroke:#feffff;stroke-width:0.41549525;stroke-miterlimit:4;stroke-opacity:1;stroke-dasharray:none" d="m 37.596451,95.298031 -0.924961,2.9872 -2.969175,0.04355 2.401327,1.796669 -0.916742,2.98708 2.409551,-1.87575 2.409411,1.80507 -0.916744,-2.96019 2.401335,-1.867099 -2.969176,0.04355 -0.924826,-2.96008 z" id="path2387" sodipodi:nodetypes="ccccccccccc"/><path inkscape:connector-curvature="0" style="fill:#ffffff;fill-opacity:1;stroke:#feffff;stroke-width:0.41549525;stroke-miterlimit:4;stroke-opacity:1;stroke-dasharray:none" d="m 37.596452,77.644598 -0.924961,2.9872 -2.969176,0.04355 2.401328,1.79667 -0.916743,2.98708 2.409552,-1.87575 2.409411,1.80507 -0.916744,-2.96019 2.401335,-1.8671 -2.969176,0.04355 -0.924826,-2.96008 z" id="path2389" sodipodi:nodetypes="ccccccccccc"/><path inkscape:connector-curvature="0" style="fill:#ffffff;fill-opacity:1;stroke:#feffff;stroke-width:0.41549525;stroke-miterlimit:4;stroke-opacity:1;stroke-dasharray:none" d="m 37.596452,113.69337 -0.924961,2.9872 -2.969176,0.0435 2.401328,1.79667 -0.916743,2.98708 2.409552,-1.87575 2.409411,1.80507 -0.916744,-2.96019 2.401335,-1.8671 -2.969176,0.0436 -0.924826,-2.96008 z" id="path2391" sodipodi:nodetypes="ccccccccccc"/><path inkscape:connector-curvature="0" style="fill:#ffffff;fill-opacity:1;stroke:#feffff;stroke-width:0.41549525;stroke-miterlimit:4;stroke-opacity:1;stroke-dasharray:none" d="m 37.596452,131.57775 -0.924961,2.9872 -2.969176,0.0435 2.401328,1.79667 -0.916743,2.98708 2.409552,-1.87575 2.409411,1.80507 -0.916744,-2.96019 2.401335,-1.8671 -2.969176,0.0436 -0.924826,-2.96008 z" id="path2393" sodipodi:nodetypes="ccccccccccc"/></g><g transform="translate(-7.9514833,-8.3855863)" id="g2592" style="fill:#ffffff;fill-opacity:1;stroke:#feffff;stroke-width:0.41549525;stroke-miterlimit:4;stroke-opacity:1;stroke-dasharray:none"><path inkscape:connector-curvature="0" style="fill:#ffffff;fill-opacity:1;stroke:#feffff;stroke-width:0.41549525;stroke-miterlimit:4;stroke-opacity:1;stroke-dasharray:none" d="m 40.999787,95.633053 -0.924961,2.9872 -2.969175,0.04355 2.401327,1.796667 -0.916742,2.98707 2.409551,-1.87575 2.409411,1.80507 -0.916744,-2.96018 2.401335,-1.867097 -2.969176,0.04355 -0.924826,-2.96008 z" id="path2594" sodipodi:nodetypes="ccccccccccc"/><path inkscape:connector-curvature="0" style="fill:#ffffff;fill-opacity:1;stroke:#feffff;stroke-width:0.41549525;stroke-miterlimit:4;stroke-opacity:1;stroke-dasharray:none" d="m 40.999787,77.55682 -0.924961,2.9872 -2.969176,0.04355 2.401328,1.79667 -0.916743,2.98708 2.409552,-1.87575 2.409411,1.80507 -0.916744,-2.96019 2.401335,-1.8671 -2.969176,0.04355 -0.924826,-2.96008 z" id="path2596" sodipodi:nodetypes="ccccccccccc"/><path inkscape:connector-curvature="0" style="fill:#ffffff;fill-opacity:1;stroke:#feffff;stroke-width:0.41549525;stroke-miterlimit:4;stroke-opacity:1;stroke-dasharray:none" d="m 40.999787,114.14229 -0.924961,2.9872 -2.969176,0.0435 2.401328,1.79667 -0.916743,2.98708 2.409552,-1.87575 2.409411,1.80507 -0.916744,-2.96019 2.401335,-1.8671 -2.969176,0.0435 -0.924826,-2.96008 z" id="path2598" sodipodi:nodetypes="ccccccccccc"/><path inkscape:connector-curvature="0" style="fill:#ffffff;fill-opacity:1;stroke:#feffff;stroke-width:0.41549525;stroke-miterlimit:4;stroke-opacity:1;stroke-dasharray:none" d="m 40.999787,131.59607 -0.924961,2.9872 -2.969176,0.0436 2.401328,1.79667 -0.916743,2.98708 2.409552,-1.87575 2.409411,1.80507 -0.916744,-2.96019 2.401335,-1.8671 -2.969176,0.0436 -0.924826,-2.96008 z" id="path2600" sodipodi:nodetypes="ccccccccccc"/></g><g transform="translate(34.039714,-0.9971061)" id="g2618" style="fill:#ffffff;fill-opacity:1;stroke:#feffff;stroke-width:0.41549525;stroke-miterlimit:4;stroke-opacity:1;stroke-dasharray:none"><path inkscape:connector-curvature="0" style="fill:#ffffff;fill-opacity:1;stroke:#feffff;stroke-width:0.41549525;stroke-miterlimit:4;stroke-opacity:1;stroke-dasharray:none" d="m 32.699446,92.726515 -0.924961,2.9872 -2.969175,0.04355 2.401327,1.79667 -0.916742,2.987075 2.409551,-1.875745 2.409411,1.805065 -0.916744,-2.960185 2.401335,-1.8671 -2.969176,0.04355 -0.924826,-2.96008 z" id="path2620" sodipodi:nodetypes="ccccccccccc"/><path inkscape:connector-curvature="0" style="fill:#ffffff;fill-opacity:1;stroke:#feffff;stroke-width:0.41549525;stroke-miterlimit:4;stroke-opacity:1;stroke-dasharray:none" d="m 32.69944,75.241943 -0.924961,2.9872 -2.969176,0.04355 2.401328,1.79667 -0.916743,2.98708 2.409552,-1.87575 2.409411,1.80507 -0.916744,-2.96019 2.401335,-1.8671 -2.969176,0.04355 -0.924826,-2.96008 z" id="path2622" sodipodi:nodetypes="ccccccccccc"/><path inkscape:connector-curvature="0" style="fill:#ffffff;fill-opacity:1;stroke:#feffff;stroke-width:0.41549525;stroke-miterlimit:4;stroke-opacity:1;stroke-dasharray:none" d="m 33.114807,111.12474 -0.924961,2.9872 -2.969176,0.0435 2.401328,1.79667 -0.916743,2.98708 2.409552,-1.87575 2.409411,1.80507 -0.916744,-2.96019 2.401335,-1.8671 -2.969176,0.0435 -0.924826,-2.96008 z" id="path2624" sodipodi:nodetypes="ccccccccccc"/><path inkscape:connector-curvature="0" style="fill:#ffffff;fill-opacity:1;stroke:#feffff;stroke-width:0.41549525;stroke-miterlimit:4;stroke-opacity:1;stroke-dasharray:none" d="m 32.988238,128.57852 -0.924961,2.9872 -2.969176,0.0436 2.401328,1.79667 -0.916743,2.98708 2.409552,-1.87575 2.409411,1.80507 -0.916744,-2.96019 2.401335,-1.8671 -2.969176,0.0436 -0.924826,-2.96008 z" id="path2626" sodipodi:nodetypes="ccccccccccc"/></g><g transform="translate(54.138002,-4.5366232)" id="g2644" style="fill:#ffffff;fill-opacity:1;stroke:#feffff;stroke-width:0.41549525;stroke-miterlimit:4;stroke-opacity:1;stroke-dasharray:none"><path inkscape:connector-curvature="0" style="fill:#ffffff;fill-opacity:1;stroke:#feffff;stroke-width:0.41549525;stroke-miterlimit:4;stroke-opacity:1;stroke-dasharray:none" d="m 33.199533,94.468689 -0.924961,2.9872 -2.969175,0.04355 2.401327,1.79667 -0.916742,2.987081 2.409551,-1.87575 2.409411,1.80507 -0.916744,-2.960191 2.401335,-1.8671 -2.969176,0.04355 -0.924826,-2.96008 z" id="path2646" sodipodi:nodetypes="ccccccccccc"/><path inkscape:connector-curvature="0" style="fill:#ffffff;fill-opacity:1;stroke:#feffff;stroke-width:0.41549525;stroke-miterlimit:4;stroke-opacity:1;stroke-dasharray:none" d="m 33.276717,75.996072 -0.924961,2.9872 -2.969176,0.04355 2.401328,1.79667 -0.916743,2.98708 2.409552,-1.87575 2.409411,1.80507 -0.916744,-2.96019 2.401335,-1.8671 -2.969176,0.04355 -0.924826,-2.96008 z" id="path2648" sodipodi:nodetypes="ccccccccccc"/><path inkscape:connector-curvature="0" style="fill:#ffffff;fill-opacity:1;stroke:#feffff;stroke-width:0.41549525;stroke-miterlimit:4;stroke-opacity:1;stroke-dasharray:none" d="m 33.199533,112.85919 -0.924961,2.9872 -2.969176,0.0435 2.401328,1.79667 -0.916743,2.98708 2.409552,-1.87575 2.409411,1.80507 -0.916744,-2.96019 2.401335,-1.8671 -2.969176,0.0435 -0.924826,-2.96008 z" id="path2650" sodipodi:nodetypes="ccccccccccc"/><path inkscape:connector-curvature="0" style="fill:#ffffff;fill-opacity:1;stroke:#feffff;stroke-width:0.41549525;stroke-miterlimit:4;stroke-opacity:1;stroke-dasharray:none" d="m 33.199533,130.21916 -0.924961,2.9872 -2.969176,0.0436 2.401328,1.79667 -0.916743,2.98708 2.409552,-1.87575 2.409411,1.80507 -0.916744,-2.96019 2.401335,-1.8671 -2.969176,0.0435 -0.924826,-2.96008 z" id="path2652" sodipodi:nodetypes="ccccccccccc"/></g><g transform="translate(74.333182,-9.4357383)" id="g2670" style="fill:#ffffff;fill-opacity:1;stroke:#feffff;stroke-width:0.41549525;stroke-miterlimit:4;stroke-opacity:1;stroke-dasharray:none"><path inkscape:connector-curvature="0" style="fill:#ffffff;fill-opacity:1;stroke:#feffff;stroke-width:0.41549525;stroke-miterlimit:4;stroke-opacity:1;stroke-dasharray:none" d="m 32.39216,95.072961 -0.924961,2.9872 -2.969175,0.04355 2.401327,1.79667 -0.916742,2.987079 2.409551,-1.87575 2.409411,1.80507 -0.916744,-2.960189 2.401335,-1.8671 -2.969176,0.04355 -0.924826,-2.96008 z" id="path2672" sodipodi:nodetypes="ccccccccccc"/><path inkscape:connector-curvature="0" style="fill:#ffffff;fill-opacity:1;stroke:#feffff;stroke-width:0.41549525;stroke-miterlimit:4;stroke-opacity:1;stroke-dasharray:none" d="m 32.481145,76.87549 -0.924961,2.9872 -2.969176,0.04355 2.401328,1.79667 -0.916743,2.98708 2.409552,-1.87575 2.409411,1.80507 -0.916744,-2.96019 2.401335,-1.8671 -2.969176,0.04355 -0.924826,-2.96008 z" id="path2674" sodipodi:nodetypes="ccccccccccc"/><path inkscape:connector-curvature="0" style="fill:#ffffff;fill-opacity:1;stroke:#feffff;stroke-width:0.41549525;stroke-miterlimit:4;stroke-opacity:1;stroke-dasharray:none" d="m 32.607714,113.38737 -0.924961,2.9872 -2.969176,0.0435 2.401328,1.79667 -0.916743,2.98708 2.409552,-1.87575 2.409411,1.80507 -0.916744,-2.96019 2.401335,-1.8671 -2.969176,0.0435 -0.924826,-2.96008 z" id="path2676" sodipodi:nodetypes="ccccccccccc"/><path inkscape:connector-curvature="0" style="fill:#ffffff;fill-opacity:1;stroke:#feffff;stroke-width:0.41549525;stroke-miterlimit:4;stroke-opacity:1;stroke-dasharray:none" d="m 32.39216,131.17915 -0.924961,2.9872 -2.969176,0.0436 2.401328,1.79667 -0.916743,2.98708 2.409552,-1.87575 2.409411,1.80507 -0.916744,-2.96019 2.401335,-1.8671 -2.969176,0.0436 -0.924826,-2.96008 z" id="path2678" sodipodi:nodetypes="ccccccccccc"/></g></g><path transform="translate(6.17305,11.648525)" inkscape:connector-curvature="0" sodipodi:nodetypes="cccccccccccc" id="path9989" style="fill:#ffffff;fill-opacity:1;stroke:none" d="m 244.92046,169.55845 c 0,1.85397 -14.89154,-10.20531 -37.30922,-11.05422 -22.41617,-2.35154 -52.35541,6.50577 -82.45234,15.4266 -30.09693,8.89941 -60.34849,17.89067 -83.38851,15.5598 -23.04002,-0.85274 -38.8677396,-13.02684 -40.1154596,-12.39915 0,4.87607 0,8.27411 0,13.15171 1.23471,-0.80222 16.9070296,10.96243 39.7977896,11.87641 22.88998,2.39899 52.99879,-6.242 83.10719,-15.18043 30.10919,-8.92926 60.21874,-18.01057 83.10797,-15.59166 22.89075,0.93235 38.56307,14.07542 39.79702,13.27397 0,-4.87761 0,-8.79457 0,-13.67064 -1.27375,-0.7226 -2.54444,-1.39239 -2.54444,-1.39239 z" clip-path="url(#clipPath5355)"/><g style="display:inline" id="layer1" transform="matrix(1.0047636,0,0,1,-0.8964185,-0.28667428)"><path inkscape:connector-curvature="0" d="m 248.35974,206.96001 c -80.24012,-42.45169 -160.480231,51.37712 -240.7195788,8.92543 0,-55.61478 0,-111.23035 0,-166.845894 C 87.879509,91.490468 168.11962,-2.3375794 248.35974,40.114878 c 0,55.614786 0,111.230352 0,166.845132 z" style="fill:url(#linearGradient3188)" id="path3186"/></g></svg>