<?xml version="1.0" encoding="UTF-8" standalone="no"?>
<!-- Created with Inkscape (http://www.inkscape.org/) -->
<svg xmlns:a="http://ns.adobe.com/AdobeSVGViewerExtensions/3.0/" xmlns:dc="http://purl.org/dc/elements/1.1/" xmlns:cc="http://creativecommons.org/ns#" xmlns:rdf="http://www.w3.org/1999/02/22-rdf-syntax-ns#" xmlns:svg="http://www.w3.org/2000/svg" xmlns="http://www.w3.org/2000/svg" xmlns:xlink="http://www.w3.org/1999/xlink" xmlns:sodipodi="http://sodipodi.sourceforge.net/DTD/sodipodi-0.dtd" xmlns:inkscape="http://www.inkscape.org/namespaces/inkscape" version="1.0" width="59.999992" height="50.080509" viewBox="0 0 255.99997 213.67684" id="svg2" xml:space="preserve" sodipodi:version="0.32" inkscape:version="0.48.4 r9939" sodipodi:docname="Nuvola_South_Korean_flag.svg" inkscape:output_extension="org.inkscape.output.svg.inkscape"><metadata id="metadata45"><rdf:RDF><cc:Work rdf:about=""><dc:format>image/svg+xml</dc:format><dc:type rdf:resource="http://purl.org/dc/dcmitype/StillImage"/></cc:Work></rdf:RDF></metadata><sodipodi:namedview inkscape:window-height="1096" inkscape:window-width="1920" inkscape:pageshadow="2" inkscape:pageopacity="0.0" guidetolerance="10.0" gridtolerance="10.0" objecttolerance="10.0" borderopacity="1.0" bordercolor="#666666" pagecolor="#ffffff" id="base" inkscape:zoom="7.1787376" inkscape:cx="53.848529" inkscape:cy="29.991925" inkscape:window-x="-8" inkscape:window-y="-8" inkscape:current-layer="svg2" showgrid="false" inkscape:window-maximized="1" fit-margin-top="0" fit-margin-left="0" fit-margin-right="0" fit-margin-bottom="0"/><defs id="defs271"><inkscape:perspective sodipodi:type="inkscape:persp3d" inkscape:vp_x="0 : 30 : 1" inkscape:vp_y="0 : 1000 : 0" inkscape:vp_z="60 : 30 : 1" inkscape:persp3d-origin="30 : 20 : 1" id="perspective3052"/><linearGradient x1="87.396973" y1="141.97266" x2="240.94727" y2="141.97266" id="XMLID_22_" gradientUnits="userSpaceOnUse" gradientTransform="matrix(1.567692,0,0,1.567692,-129.3706,-94.56783)">
								<stop style="stop-color:#ffffff;stop-opacity:0.66666675" offset="0" id="stop139"/>
								
								<stop style="stop-color:#d7d7d7;stop-opacity:0.21875" offset="0.24074516" id="stop143"/>
								<stop style="stop-color:#4d4d4d;stop-opacity:0" offset="0.4585622" id="stop145"/><stop style="stop-color:#ffffff;stop-opacity:0.51041669" offset="0.71891773" id="stop3696"/><stop style="stop-color:#f2f2f2;stop-opacity:0.40000001" offset="0.87351298" id="stop2807"/><stop style="stop-color:#ffffff;stop-opacity:0.62352943" offset="1" id="stop3694"/>
								
								
								<a:midPointStop style="stop-color:#E9E9EF" offset="0"/>
								<a:midPointStop style="stop-color:#E9E9EF" offset="0.5"/>
								<a:midPointStop style="stop-color:#B1B1C5" offset="0.157303"/>
								<a:midPointStop style="stop-color:#B1B1C5" offset="0.5"/>
								<a:midPointStop style="stop-color:#CECEDB" offset="0.314607"/>
								<a:midPointStop style="stop-color:#CECEDB" offset="0.5"/>
								<a:midPointStop style="stop-color:#FFFFFF" offset="0.65"/>
								<a:midPointStop style="stop-color:#FFFFFF" offset="0.5"/>
								<a:midPointStop style="stop-color:#CECEDB" offset="0.837079"/>
								<a:midPointStop style="stop-color:#CECEDB" offset="0.5"/>
								<a:midPointStop style="stop-color:#FFFF66" offset="1"/>
							</linearGradient><linearGradient x1="87.396973" y1="141.97266" x2="269.33331" y2="141.97276" id="linearGradient1945" xlink:href="#XMLID_22_" gradientUnits="userSpaceOnUse" gradientTransform="matrix(1.567692,0,0,1.567692,-129.37138,-73.408041)"/><linearGradient gradientTransform="matrix(1.567692,0,0,1.567692,-69.82581,15.22741)" gradientUnits="userSpaceOnUse" id="XMLID_17_" y2="112.30453" x2="126.18921" y1="39.617504" x1="126.18921">
								<stop id="stop18" offset="0" style="stop-color:#c200be;stop-opacity:1;"/>
								<stop id="stop20" offset="0.19460699" style="stop-color:#c200be;stop-opacity:1;"/>
								<stop id="stop22" offset="0.31460699" style="stop-color:#1000ae;stop-opacity:1;"/>
								<stop id="stop24" offset="0.72999996" style="stop-color:#1000ae;stop-opacity:1;"/>
								<stop id="stop26" offset="0.85707897" style="stop-color:#00dab6;stop-opacity:1;"/>
								<stop id="stop28" offset="1" style="stop-color:#00dab6;stop-opacity:1;"/>
								<a:midPointStop offset="0" style="stop-color:#CF0000"/>
								<a:midPointStop offset="0.5" style="stop-color:#CF0000"/>
								<a:midPointStop offset="0.157303" style="stop-color:#7C0000"/>
								<a:midPointStop offset="0.5" style="stop-color:#7C0000"/>
								<a:midPointStop offset="0.314607" style="stop-color:#CF0000"/>
								<a:midPointStop offset="0.5" style="stop-color:#CF0000"/>
								<a:midPointStop offset="0.65" style="stop-color:#B80000"/>
								<a:midPointStop offset="0.5" style="stop-color:#B80000"/>
								<a:midPointStop offset="0.837079" style="stop-color:#CF0000"/>
								<a:midPointStop offset="0.5" style="stop-color:#CF0000"/>
								<a:midPointStop offset="1" style="stop-color:#FF0000"/>
							</linearGradient><linearGradient inkscape:collect="always" xlink:href="#XMLID_22_" id="linearGradient3188" gradientUnits="userSpaceOnUse" gradientTransform="matrix(1.567692,0,0,1.567692,-129.37138,-73.408041)" x1="87.396973" y1="141.97266" x2="269.33331" y2="141.97276"/><linearGradient inkscape:collect="always" xlink:href="#XMLID_17_" id="linearGradient7085" x1="133.17909" y1="151.1393" x2="132.62358" y2="123.21392" gradientUnits="userSpaceOnUse"/></defs>
	
		
	<g style="display:inline" id="layer2" transform="translate(-1.7853684e-5,-21.161579)"/><g id="g2960" inkscape:label="ombre" style="display:inline" sodipodi:insensitive="true" transform="translate(-1.7853684e-5,-21.161579)"><path id="path5924" style="fill:url(#linearGradient1945)" d="m 248.35974,206.96001 c -80.24012,-42.45169 -160.480231,51.37712 -240.7195788,8.92543 0,-55.61478 0,-111.63878 0,-167.25432 C 87.981616,90.163083 169.3449,-2.0312598 248.35974,40.114878 c 0,55.614786 0,111.230352 0,166.845132 z" sodipodi:nodetypes="ccccc" inkscape:connector-curvature="0"/></g><path id="path15" style="fill:#4d4d4d" d="M 248.36053,11.310443 C 167.27227,-31.591347 86.183256,64.687753 5.094999,18.843479 2.2811157,17.255884 0,18.051213 0,20.868159 0,78.18154 0,135.49568 0,192.80906 c 0,2.81082 2.2811157,6.57849 5.094999,8.16455 81.936399,46.325 163.873571,-52.46409 245.809971,-6.13986 2.81388,1.58682 5.095,0.79226 5.095,-2.02469 0,-57.31338 0,-114.62752 0,-171.940901 0,-2.810823 -2.28112,-6.577723 -5.095,-8.165317 -0.84814,-0.479187 -1.69629,-0.943066 -2.54444,-1.392399 z" inkscape:connector-curvature="0"/><path id="path30" style="fill:#ffffff;fill-opacity:1" d="m 248.36053,16.405442 c 0,1.853979 -14.89154,-10.2053066 -37.30922,-11.0542186 C 188.63514,2.9996854 158.6959,11.856992 128.59897,20.777832 98.502044,29.67724 68.250482,38.668506 45.210463,36.337635 22.170441,35.484896 6.3427234,23.310788 5.094999,23.938478 c 0,4.876072 0,167.063302 0,171.940902 1.234711,-0.80222 16.907038,11.48136 39.797791,12.39534 22.889987,2.39899 52.99917,-6.56931 83.10757,-15.50775 30.10919,-8.92926 60.21836,-17.85624 83.10759,-15.43733 22.89075,0.93235 38.56307,13.21056 39.79702,12.40911 0,-4.87761 0,-167.064837 0,-171.940909 -1.27375,-0.722609 -2.54444,-1.392399 -2.54444,-1.392399 z" inkscape:connector-curvature="0"/><polyline style="fill:none" points="0,256 0,0 256,0 256,256 " id="polyline3117" transform="translate(-1.7853684e-5,-21.161579)"/><path id="path45" style="fill:#ffffff;fill-opacity:1" d="m 248.36053,185.76978 c -80.24011,-42.45245 -160.478691,51.3756 -240.7180315,8.92697 0,-55.61555 0,-111.231109 0,-166.845872 C 87.881839,70.300273 168.12196,-23.528541 248.36053,18.923914 c 0,55.615557 0,111.231086 0,166.845866 z" inkscape:connector-curvature="0"/>


<g transform="matrix(5.3333333,0,0,-5.3333333,-1506.6699,2216.1751)" id="g2532"><g transform="translate(283.9336,410.3047)" id="g4222"><path id="path4224" style="fill:#ffffff;fill-opacity:1;fill-rule:nonzero;stroke:none" d="m 0,0 c 15.239,-7.38 29.895,9.054 45.134,1.674 l 0,-31.283 C 29.896,-22.232 15.238,-38.66 0,-31.283 L 0,0 z" inkscape:connector-curvature="0"/></g><path d="m 314.8457,408.3335 c 0.765,-1.037 1.147,-1.565 1.912,-2.648 -0.417,-0.35 -0.626,-0.528 -1.043,-0.892 -0.765,1.057 -1.147,1.573 -1.912,2.589 0.417,0.386 0.626,0.576 1.043,0.951" style="fill:#000000;fill-opacity:1;fill-rule:nonzero;stroke:none" id="path4228" inkscape:connector-curvature="0"/><path d="m 317.1045,405.1919 c 0.765,-1.092 1.149,-1.649 1.914,-2.797 -0.417,-0.314 -0.626,-0.475 -1.043,-0.807 -0.765,1.117 -1.148,1.659 -1.913,2.724 0.417,0.359 0.625,0.535 1.042,0.88" style="fill:#000000;fill-opacity:1;fill-rule:nonzero;stroke:none" id="path4232" inkscape:connector-curvature="0"/><path d="m 316.4102,409.7012 c 1.669,-2.342 2.504,-3.563 4.173,-6.184 -0.417,-0.284 -0.626,-0.432 -1.043,-0.736 -1.669,2.541 -2.504,3.728 -4.173,6.016 0.417,0.368 0.626,0.55 1.043,0.904" style="fill:#000000;fill-opacity:1;fill-rule:nonzero;stroke:none" id="path4236" inkscape:connector-curvature="0"/><path d="m 317.9756,410.9868 c 0.765,-1.116 1.149,-1.686 1.914,-2.863 -0.417,-0.298 -0.626,-0.453 -1.043,-0.77 -0.765,1.143 -1.15,1.698 -1.915,2.785 0.417,0.347 0.627,0.517 1.044,0.848" style="fill:#000000;fill-opacity:1;fill-rule:nonzero;stroke:none" id="path4240" inkscape:connector-curvature="0"/><path d="m 320.2334,407.5864 c 0.765,-1.189 1.149,-1.8 1.914,-3.061 -0.417,-0.252 -0.626,-0.384 -1.043,-0.658 -0.765,1.22 -1.149,1.812 -1.914,2.966 0.417,0.31 0.626,0.461 1.043,0.753" style="fill:#000000;fill-opacity:1;fill-rule:nonzero;stroke:none" id="path4244" inkscape:connector-curvature="0"/><path d="m 295.0249,389.4121 c 1.669,-2.436 2.504,-3.577 4.173,-5.794 -0.417,-0.386 -0.625,-0.576 -1.043,-0.95 -1.669,2.263 -2.504,3.433 -4.172,5.938 0.417,0.314 0.625,0.475 1.042,0.806" style="fill:#000000;fill-opacity:1;fill-rule:nonzero;stroke:none" id="path4248" inkscape:connector-curvature="0"/><path d="m 293.4609,388.2197 c 0.765,-1.165 1.148,-1.73 1.914,-2.837 -0.418,-0.337 -0.628,-0.502 -1.045,-0.821 -0.765,1.137 -1.147,1.719 -1.912,2.92 0.418,0.285 0.626,0.433 1.043,0.738" style="fill:#000000;fill-opacity:1;fill-rule:nonzero;stroke:none" id="path4252" inkscape:connector-curvature="0"/><path d="m 295.7217,384.8809 c 0.765,-1.097 1.147,-1.631 1.912,-2.68 -0.417,-0.368 -0.625,-0.548 -1.043,-0.902 -0.765,1.073 -1.148,1.621 -1.913,2.747 0.417,0.325 0.627,0.493 1.044,0.835" style="fill:#000000;fill-opacity:1;fill-rule:nonzero;stroke:none" id="path4256" inkscape:connector-curvature="0"/><path d="m 291.897,387.1318 c 1.669,-2.662 2.503,-3.897 4.172,-6.269 -0.417,-0.346 -0.627,-0.52 -1.044,-0.851 -1.669,2.435 -2.502,3.713 -4.171,6.463 0.418,0.252 0.626,0.383 1.043,0.657" style="fill:#000000;fill-opacity:1;fill-rule:nonzero;stroke:none" id="path4260" inkscape:connector-curvature="0"/><path d="m 293.9824,396.5601 c 1.669,2.701 2.504,4.132 4.173,7.076 0.417,-0.204 0.625,-0.304 1.043,-0.496 -1.669,-2.989 -2.505,-4.45 -4.174,-7.221 -0.417,0.247 -0.625,0.376 -1.042,0.641" style="fill:#000000;fill-opacity:1;fill-rule:nonzero;stroke:none" id="path4264" inkscape:connector-curvature="0"/><path d="m 292.418,397.6055 c 1.669,2.585 2.504,3.968 4.173,6.832 0.417,-0.224 0.626,-0.333 1.043,-0.544 -1.669,-2.918 -2.504,-4.332 -4.173,-6.996 -0.418,0.274 -0.626,0.415 -1.043,0.708" style="fill:#000000;fill-opacity:1;fill-rule:nonzero;stroke:none" id="path4268" inkscape:connector-curvature="0"/><path d="m 290.854,398.7646 c 1.669,2.456 2.502,3.784 4.171,6.555 0.417,-0.247 0.627,-0.367 1.044,-0.598 -1.669,-2.835 -2.503,-4.2 -4.172,-6.744 -0.418,0.305 -0.626,0.461 -1.043,0.787" style="fill:#000000;fill-opacity:1;fill-rule:nonzero;stroke:none" id="path4272" inkscape:connector-curvature="0"/><path d="m 313.8037,387.8613 c 0.765,1.37 1.146,2.044 1.911,3.374 0.417,-0.215 0.626,-0.325 1.043,-0.554 -0.765,-1.303 -1.147,-1.966 -1.912,-3.316 -0.417,0.204 -0.625,0.304 -1.042,0.496" style="fill:#000000;fill-opacity:1;fill-rule:nonzero;stroke:none" id="path4276" inkscape:connector-curvature="0"/><path d="m 316.0625,391.8389 c 0.765,1.321 1.148,1.972 1.913,3.241 0.417,-0.247 0.626,-0.374 1.043,-0.638 -0.765,-1.239 -1.149,-1.874 -1.914,-3.168 -0.417,0.234 -0.625,0.345 -1.042,0.565" style="fill:#000000;fill-opacity:1;fill-rule:nonzero;stroke:none" id="path4280" inkscape:connector-curvature="0"/><path d="m 315.3672,387.1064 c 0.765,1.338 1.148,1.996 1.913,3.286 0.417,-0.236 0.626,-0.359 1.043,-0.612 -0.765,-1.26 -1.148,-1.903 -1.913,-3.216 -0.417,0.224 -0.626,0.332 -1.043,0.542" style="fill:#000000;fill-opacity:1;fill-rule:nonzero;stroke:none" id="path4284" inkscape:connector-curvature="0"/><path d="m 317.627,390.9756 c 0.765,1.28 1.148,1.907 1.913,3.128 0.417,-0.274 0.626,-0.415 1.043,-0.709 -0.765,-1.185 -1.149,-1.795 -1.914,-3.044 -0.417,0.259 -0.625,0.383 -1.042,0.625" style="fill:#000000;fill-opacity:1;fill-rule:nonzero;stroke:none" id="path4288" inkscape:connector-curvature="0"/><path d="m 316.9316,386.2773 c 0.765,1.299 1.15,1.938 1.915,3.181 0.417,-0.262 0.626,-0.396 1.043,-0.676 -0.765,-1.209 -1.149,-1.832 -1.914,-3.102 -0.417,0.247 -0.627,0.366 -1.044,0.597" style="fill:#000000;fill-opacity:1;fill-rule:nonzero;stroke:none" id="path4292" inkscape:connector-curvature="0"/><path d="m 319.1904,390.0205 c 0.765,1.232 1.149,1.835 1.914,3.001 0.417,-0.304 0.624,-0.462 1.041,-0.788 -0.765,-1.126 -1.147,-1.706 -1.912,-2.903 -0.417,0.287 -0.626,0.422 -1.043,0.69" style="fill:#000000;fill-opacity:1;fill-rule:nonzero;stroke:none" id="path4296" inkscape:connector-curvature="0"/><path d="m 312.7598,393.0283 c 2.305,4.181 1.37,8.885 -2.087,10.274 -3.457,1.39 -8.127,-1.149 -10.432,-5.331 -1.728,-3.135 -1.027,-6.65 1.566,-7.713 2.593,-1.062 6.093,0.837 7.821,4.058" style="fill:#cd2e3a;fill-opacity:1;fill-rule:nonzero;stroke:none" id="path4300" inkscape:connector-curvature="0"/><path d="m 300.2412,397.9717 c -1.152,-2.091 -0.684,-4.425 1.044,-5.147 1.729,-0.723 4.064,0.509 5.216,2.675 1.152,2.166 3.487,3.399 5.216,2.676 1.728,-0.724 2.195,-3.057 1.043,-5.147 -2.305,-4.182 -6.975,-6.721 -10.432,-5.331 -3.457,1.389 -4.392,6.092 -2.087,10.274" style="fill:#0047a0;fill-opacity:1;fill-rule:nonzero;stroke:none" id="path4304" inkscape:connector-curvature="0"/></g><g style="display:inline" id="layer1" transform="translate(3.1546316e-5,-21.161521)"><path d="m 248.35974,206.96001 c -80.24012,-42.45169 -160.480231,51.37712 -240.7195788,8.92543 0,-55.61478 0,-111.23035 0,-166.845894 C 87.879509,91.490468 168.11962,-2.3375794 248.35974,40.114878 c 0,55.614786 0,111.230352 0,166.845132 z" style="fill:url(#linearGradient3188)" id="path3186" inkscape:connector-curvature="0"/></g></svg>