<?xml version="1.0" encoding="UTF-8" standalone="no"?>
<!-- Created with Inkscape (http://www.inkscape.org/) -->
<svg xmlns:a="http://ns.adobe.com/AdobeSVGViewerExtensions/3.0/" xmlns:dc="http://purl.org/dc/elements/1.1/" xmlns:cc="http://creativecommons.org/ns#" xmlns:rdf="http://www.w3.org/1999/02/22-rdf-syntax-ns#" xmlns:svg="http://www.w3.org/2000/svg" xmlns="http://www.w3.org/2000/svg" xmlns:xlink="http://www.w3.org/1999/xlink" xmlns:sodipodi="http://sodipodi.sourceforge.net/DTD/sodipodi-0.dtd" xmlns:inkscape="http://www.inkscape.org/namespaces/inkscape" version="1.0" width="48pt" height="48pt" viewBox="0 0 256 256" id="svg2" xml:space="preserve" sodipodi:version="0.32" inkscape:version="0.48.2 r9819" sodipodi:docname="Nuvola_Russian_flag.svg" inkscape:output_extension="org.inkscape.output.svg.inkscape"><metadata id="metadata45"><rdf:RDF><cc:Work rdf:about=""><dc:format>image/svg+xml</dc:format><dc:type rdf:resource="http://purl.org/dc/dcmitype/StillImage"/><dc:title/></cc:Work></rdf:RDF></metadata><sodipodi:namedview inkscape:window-height="705" inkscape:window-width="1366" inkscape:pageshadow="2" inkscape:pageopacity="0.0" guidetolerance="10.0" gridtolerance="10.0" objecttolerance="10.0" borderopacity="1.0" bordercolor="#666666" pagecolor="#ffffff" id="base" inkscape:zoom="6.275" inkscape:cx="30" inkscape:cy="30" inkscape:window-x="-4" inkscape:window-y="-4" inkscape:current-layer="svg2" showgrid="false" inkscape:window-maximized="1"/><defs id="defs271"><linearGradient x1="87.396973" y1="141.97266" x2="240.94727" y2="141.97266" id="XMLID_22_" gradientUnits="userSpaceOnUse" gradientTransform="matrix(1.567692,0,0,1.567692,-129.3706,-94.56783)">
								<stop style="stop-color:#ffffff;stop-opacity:0.66666675" offset="0" id="stop139"/>
								
								<stop style="stop-color:#d7d7d7;stop-opacity:0.21875" offset="0.24074516" id="stop143"/>
								<stop style="stop-color:#4d4d4d;stop-opacity:0" offset="0.4585622" id="stop145"/><stop style="stop-color:#ffffff;stop-opacity:0.51041669" offset="0.71891773" id="stop3696"/><stop style="stop-color:#f2f2f2;stop-opacity:0.40000001" offset="0.87351298" id="stop2807"/><stop style="stop-color:#ffffff;stop-opacity:0.62352943" offset="1" id="stop3694"/>
								
								
								<a:midPointStop style="stop-color:#E9E9EF" offset="0"/>
								<a:midPointStop style="stop-color:#E9E9EF" offset="0.5"/>
								<a:midPointStop style="stop-color:#B1B1C5" offset="0.157303"/>
								<a:midPointStop style="stop-color:#B1B1C5" offset="0.5"/>
								<a:midPointStop style="stop-color:#CECEDB" offset="0.314607"/>
								<a:midPointStop style="stop-color:#CECEDB" offset="0.5"/>
								<a:midPointStop style="stop-color:#FFFFFF" offset="0.65"/>
								<a:midPointStop style="stop-color:#FFFFFF" offset="0.5"/>
								<a:midPointStop style="stop-color:#CECEDB" offset="0.837079"/>
								<a:midPointStop style="stop-color:#CECEDB" offset="0.5"/>
								<a:midPointStop style="stop-color:#FFFF66" offset="1"/>
							</linearGradient><linearGradient gradientTransform="matrix(1.567692,0,0,1.567692,-69.82581,15.22741)" gradientUnits="userSpaceOnUse" id="XMLID_17_" y2="112.30453" x2="126.18921" y1="39.617504" x1="126.18921">
								<stop id="stop18" offset="0" style="stop-color:#c200be;stop-opacity:1;"/>
								<stop id="stop20" offset="0.19460699" style="stop-color:#c200be;stop-opacity:1;"/>
								<stop id="stop22" offset="0.31460699" style="stop-color:#1000ae;stop-opacity:1;"/>
								<stop id="stop24" offset="0.72999996" style="stop-color:#1000ae;stop-opacity:1;"/>
								<stop id="stop26" offset="0.85707897" style="stop-color:#00dab6;stop-opacity:1;"/>
								<stop id="stop28" offset="1" style="stop-color:#00dab6;stop-opacity:1;"/>
								<a:midPointStop offset="0" style="stop-color:#CF0000"/>
								<a:midPointStop offset="0.5" style="stop-color:#CF0000"/>
								<a:midPointStop offset="0.157303" style="stop-color:#7C0000"/>
								<a:midPointStop offset="0.5" style="stop-color:#7C0000"/>
								<a:midPointStop offset="0.314607" style="stop-color:#CF0000"/>
								<a:midPointStop offset="0.5" style="stop-color:#CF0000"/>
								<a:midPointStop offset="0.65" style="stop-color:#B80000"/>
								<a:midPointStop offset="0.5" style="stop-color:#B80000"/>
								<a:midPointStop offset="0.837079" style="stop-color:#CF0000"/>
								<a:midPointStop offset="0.5" style="stop-color:#CF0000"/>
								<a:midPointStop offset="1" style="stop-color:#FF0000"/>
							</linearGradient><linearGradient inkscape:collect="always" xlink:href="#XMLID_17_" id="linearGradient7085" x1="133.17909" y1="151.1393" x2="132.62358" y2="123.21392" gradientUnits="userSpaceOnUse"/><linearGradient inkscape:collect="always" xlink:href="#XMLID_17_" id="linearGradient2436" gradientUnits="userSpaceOnUse" x1="133.17909" y1="151.1393" x2="132.62358" y2="123.21392" gradientTransform="translate(272.28312,-30.895163)"/><linearGradient inkscape:collect="always" xlink:href="#XMLID_17_" id="linearGradient3449" gradientUnits="userSpaceOnUse" gradientTransform="translate(272.28312,-30.895163)" x1="133.17909" y1="151.1393" x2="132.62358" y2="123.21392"/><linearGradient inkscape:collect="always" xlink:href="#XMLID_17_" id="linearGradient3457" gradientUnits="userSpaceOnUse" gradientTransform="translate(306.93733,-90.754533)" x1="133.17909" y1="151.1393" x2="132.62358" y2="123.21392"/><linearGradient gradientTransform="matrix(1.567692,0,0,1.567692,-69.82581,15.22741)" x1="126.18921" y1="38.575397" x2="126.18921" y2="108.1361" id="linearGradient6742" gradientUnits="userSpaceOnUse">
								<stop style="stop-color:white;stop-opacity:1;" offset="0" id="stop6744"/>
								<stop style="stop-color:white;stop-opacity:1;" offset="0.16734415" id="stop6746"/>
								<stop style="stop-color:#0039a6;stop-opacity:1;" offset="0.33807135" id="stop6748"/>
								<stop style="stop-color:#0039a6;stop-opacity:1;" offset="0.65365797" id="stop6750"/>
								<stop style="stop-color:#d52b1e;stop-opacity:1;" offset="0.78629959" id="stop6752"/>
								<stop style="stop-color:#d52b1e;stop-opacity:1;" offset="1" id="stop6754"/>
								<a:midPointStop style="stop-color:#CF0000" offset="0"/>
								<a:midPointStop style="stop-color:#CF0000" offset="0.5"/>
								<a:midPointStop style="stop-color:#7C0000" offset="0.157303"/>
								<a:midPointStop style="stop-color:#7C0000" offset="0.5"/>
								<a:midPointStop style="stop-color:#CF0000" offset="0.314607"/>
								<a:midPointStop style="stop-color:#CF0000" offset="0.5"/>
								<a:midPointStop style="stop-color:#B80000" offset="0.65"/>
								<a:midPointStop style="stop-color:#B80000" offset="0.5"/>
								<a:midPointStop style="stop-color:#CF0000" offset="0.837079"/>
								<a:midPointStop style="stop-color:#CF0000" offset="0.5"/>
								<a:midPointStop style="stop-color:#FF0000" offset="1"/>
							</linearGradient><linearGradient inkscape:collect="always" xlink:href="#XMLID_22_" id="linearGradient3019" gradientUnits="userSpaceOnUse" gradientTransform="matrix(1.567692,0,0,1.567692,-129.3714,-94.56962)" x1="87.396973" y1="141.97266" x2="269.33331" y2="141.97276"/><linearGradient inkscape:collect="always" xlink:href="#linearGradient6742" id="linearGradient3027" gradientUnits="userSpaceOnUse" gradientTransform="matrix(1.567692,0,0,1.567692,-69.82581,15.22741)" x1="126.18921" y1="39.617504" x2="126.18921" y2="112.30453"/></defs>
	
		
	



<polyline style="fill:none" points="0,256 0,0 256,0 256,256 " id="polyline6779"/><path inkscape:connector-curvature="0" d="M 248.36055,32.472022 C 167.27229,-10.429768 86.183274,85.849332 5.0950169,40.005058 2.2811336,38.417463 1.7853684e-5,39.212792 1.7853684e-5,42.029738 c 0,57.313381 0,114.627522 0,171.940902 0,2.81082 2.281115746316,6.57849 5.094999046316,8.16455 81.9363991,46.325 163.8735731,-52.46409 245.8099731,-6.13986 2.81388,1.58682 5.095,0.79226 5.095,-2.02469 0,-57.31338 0,-114.627521 0,-171.940902 0,-2.810823 -2.28112,-6.577723 -5.095,-8.165317 -0.84814,-0.479187 -1.69629,-0.943066 -2.54444,-1.392399 z" style="fill:#4d4d4d" id="path15"/><path inkscape:connector-curvature="0" d="m 248.36055,37.567021 c 0,1.853979 -14.89154,-10.205307 -37.30922,-11.054219 -22.41617,-2.351538 -52.35541,6.505769 -82.45234,15.426609 C 98.502062,50.838819 68.2505,59.830085 45.210481,57.499214 22.170459,56.646475 6.3427413,44.472367 5.0950169,45.100057 c 0,4.876072 0,167.063303 0,171.940903 1.234711,-0.80222 16.9070381,11.48136 39.7977911,12.39534 22.889987,2.39899 52.99917,-6.56931 83.107572,-15.50775 30.10919,-8.92926 60.21836,-17.85624 83.10759,-15.43733 22.89075,0.93235 38.56307,13.21056 39.79702,12.40911 0,-4.87761 0,-167.064838 0,-171.94091 -1.27375,-0.722609 -2.54444,-1.392399 -2.54444,-1.392399 z" style="fill:url(#linearGradient3027);fill-opacity:1" id="path30"/><path inkscape:connector-curvature="0" d="m 248.36055,206.96042 c -80.24011,-42.45245 -160.478693,51.3756 -240.7180336,8.92697 0,-55.61555 0,-32.35727 0,-87.97207 L 248.36055,122.38809 c 0,55.61556 0,28.95755 0,84.57233 z" style="fill:#d52b1e;fill-opacity:1" id="path45" sodipodi:nodetypes="ccccc"/><path inkscape:connector-curvature="0" d="M 7.6409828,107.3324 C 87.880324,148.03464 168.12045,58.067687 248.35902,98.772858 c 0,-13.647416 0,-27.29556 0,-40.943709 C 168.11891,17.123977 87.880324,107.09092 7.6409828,66.388692 c 0,13.647415 0,27.295563 0,40.943708 z" style="fill:#ffffff;fill-opacity:1" id="path9466"/><path inkscape:connector-curvature="0" d="M 7.6425164,90.537124 C 87.881857,132.1734 168.12198,40.141881 248.36055,81.781156 c 0,-13.960595 0,-27.921941 0,-41.883287 C 168.12044,-1.7414056 87.881857,90.290107 7.6425164,48.653836 c 0,13.960596 0,27.921941 0,41.883288 z" style="fill:#ffffff;fill-opacity:1" id="path60"/><path inkscape:connector-curvature="0" d="m 7.640983,123.08255 c 0,13.90129 0,27.80258 0,41.70387 80.239341,41.4542 160.479467,-50.17577 240.718037,-8.71784 0,-13.90128 0,-27.80257 0,-41.70388 C 168.11891,72.906769 87.880324,164.53749 7.640983,123.08255 z" style="fill:#0039a6;fill-opacity:1" id="path9462"/><path inkscape:connector-curvature="0" d="m 7.6425164,106.53247 c 0,14.3711 0,28.74219 0,43.11329 80.2393406,42.85517 160.4794636,-51.8715 240.7180336,-9.01247 0,-14.37108 0,-28.74218 0,-43.113282 C 168.12044,54.660972 87.881857,149.38841 7.6425164,106.53247 z" style="fill:#0039a6;fill-opacity:1" id="path75"/><path inkscape:connector-curvature="0" d="m 248.35974,206.96001 c -80.24012,-42.45169 -160.480231,51.37712 -240.7195788,8.92543 0,-55.61478 0,-111.23035 0,-166.845894 C 87.879509,91.490468 168.11962,-2.3375794 248.35974,40.114878 c 0,55.614786 0,111.230352 0,166.845132 z" style="fill:url(#linearGradient3019)" id="path5924"/></svg>